<?xml version="1.0" encoding="UTF-8" standalone="no"?>
<svg
   xmlns:dc="http://purl.org/dc/elements/1.1/"
   xmlns:cc="http://creativecommons.org/ns#"
   xmlns:rdf="http://www.w3.org/1999/02/22-rdf-syntax-ns#"
   xmlns:svg="http://www.w3.org/2000/svg"
   xmlns="http://www.w3.org/2000/svg"
   xmlns:sodipodi="http://sodipodi.sourceforge.net/DTD/sodipodi-0.dtd"
   xmlns:inkscape="http://www.inkscape.org/namespaces/inkscape"
   version="1.0"
   width="1126pt"
   height="650pt"
   viewBox="0 0 1126 650"
   preserveAspectRatio="xMidYMid meet"
   id="svg20"
   sodipodi:docname="fnrun-logo.svg"
   inkscape:version="1.0.2 (e86c8708, 2021-01-15)">
  <metadata
     id="metadata26">
    <rdf:RDF>
      <cc:Work
         rdf:about="">
        <dc:format>image/svg+xml</dc:format>
        <dc:type
           rdf:resource="http://purl.org/dc/dcmitype/StillImage" />
        <dc:title></dc:title>
      </cc:Work>
    </rdf:RDF>
  </metadata>
  <defs
     id="defs24" />
  <sodipodi:namedview
     pagecolor="#ffffff"
     bordercolor="#666666"
     borderopacity="1"
     objecttolerance="10"
     gridtolerance="10"
     guidetolerance="10"
     inkscape:pageopacity="0"
     inkscape:pageshadow="2"
     inkscape:window-width="1159"
     inkscape:window-height="775"
     id="namedview22"
     showgrid="false"
     fit-margin-top="0"
     fit-margin-left="0"
     fit-margin-right="0"
     fit-margin-bottom="0"
     inkscape:zoom="0.44671799"
     inkscape:cx="766.66667"
     inkscape:cy="393.33333"
     inkscape:window-x="0"
     inkscape:window-y="25"
     inkscape:window-maximized="0"
     inkscape:current-layer="svg20" />
  <g
     transform="matrix(0.1,0,0,-0.1,-86,912)"
     fill="#000000"
     stroke="none"
     id="g18">
    <path
       d="m 2920,9110 c 0,-5 -18,-10 -40,-10 -22,0 -40,-4 -40,-10 0,-5 -9,-10 -20,-10 -11,0 -20,-4 -20,-10 0,-5 -9,-10 -20,-10 -11,0 -20,-4 -20,-10 0,-5 -9,-10 -20,-10 -11,0 -20,-4 -20,-10 0,-5 -8,-10 -18,-10 -10,0 -24,-9 -32,-20 -8,-11 -21,-20 -30,-20 -9,0 -22,-9 -30,-20 -8,-11 -21,-20 -28,-20 -8,0 -27,-13 -42,-30 -15,-16 -33,-30 -40,-30 -6,0 -29,-18 -50,-40 -21,-22 -43,-40 -49,-40 -15,0 -221,-207 -221,-221 0,-6 -13,-24 -30,-39 -16,-15 -30,-34 -30,-42 0,-7 -9,-20 -20,-28 -11,-8 -20,-22 -20,-32 0,-10 -4,-18 -10,-18 -5,0 -10,-8 -10,-18 0,-10 -9,-24 -20,-32 -11,-8 -20,-22 -20,-32 0,-10 -4,-18 -10,-18 -5,0 -10,-9 -10,-20 0,-11 -4,-20 -10,-20 -5,0 -10,-9 -10,-20 0,-11 -4,-20 -10,-20 -5,0 -10,-9 -10,-20 0,-11 -4,-20 -10,-20 -5,0 -10,-9 -10,-20 0,-11 -4,-20 -10,-20 -5,0 -10,-9 -10,-20 0,-11 -4,-20 -10,-20 -5,0 -10,-9 -10,-20 0,-11 -4,-20 -10,-20 -5,0 -10,-9 -10,-20 0,-11 -4,-20 -10,-20 -5,0 -10,-13 -10,-30 0,-16 -4,-30 -10,-30 -5,0 -10,-9 -10,-20 0,-11 -4,-20 -10,-20 -5,0 -10,-13 -10,-30 0,-16 -4,-30 -10,-30 -5,0 -10,-9 -10,-20 0,-11 -4,-20 -10,-20 -5,0 -10,-13 -10,-30 0,-16 -4,-30 -10,-30 -5,0 -10,-9 -10,-20 0,-11 -4,-20 -10,-20 -5,0 -10,-13 -10,-30 0,-16 -4,-30 -10,-30 -5,0 -10,-13 -10,-30 0,-16 -4,-30 -10,-30 -5,0 -10,-13 -10,-30 0,-16 -4,-30 -10,-30 -5,0 -10,-13 -10,-30 0,-16 -4,-30 -10,-30 -5,0 -10,-13 -10,-30 0,-16 -4,-30 -10,-30 -5,0 -10,-13 -10,-30 0,-16 -4,-30 -10,-30 -5,0 -10,-18 -10,-40 0,-22 -4,-40 -10,-40 -5,0 -10,-18 -10,-40 0,-22 -4,-40 -10,-40 -5,0 -10,-22 -10,-50 0,-27 -4,-50 -10,-50 -6,0 -10,-27 -10,-60 0,-33 -4,-60 -10,-60 -6,0 -10,-33 -10,-80 0,-47 -4,-80 -10,-80 -6,0 -10,-27 -10,-60 0,-33 -4,-60 -10,-60 -5,0 -10,-7 -10,-16 0,-8 -27,-42 -60,-74 -33,-32 -60,-65 -60,-72 0,-8 -9,-20 -20,-28 -11,-8 -20,-22 -20,-32 0,-10 -4,-18 -10,-18 -5,0 -10,-9 -10,-20 0,-11 -4,-20 -10,-20 -5,0 -10,-13 -10,-30 0,-16 -4,-30 -10,-30 -5,0 -10,-20 -10,-45 0,-35 -6,-52 -25,-70 -13,-14 -29,-25 -36,-25 -6,0 -24,-13 -39,-30 -15,-16 -33,-30 -39,-30 -17,0 -121,-107 -121,-125 0,-8 -4,-15 -10,-15 -5,0 -10,-9 -10,-20 0,-11 -4,-20 -10,-20 -5,0 -10,-9 -10,-20 0,-11 -4,-20 -10,-20 -5,0 -10,-13 -10,-30 0,-16 -4,-30 -10,-30 -5,0 -10,-18 -10,-40 0,-22 -4,-40 -10,-40 -5,0 -10,-18 -10,-40 0,-22 -4,-40 -10,-40 -5,0 -10,-18 -10,-40 0,-22 -4,-40 -10,-40 -5,0 -10,-22 -10,-50 0,-27 -4,-50 -10,-50 -6,0 -10,-33 -10,-80 0,-47 4,-80 10,-80 6,0 10,-9 10,-20 0,-11 5,-20 10,-20 6,0 10,-13 10,-30 0,-16 5,-30 10,-30 6,0 10,-9 10,-20 0,-11 5,-20 10,-20 6,0 10,-9 10,-20 0,-11 5,-20 10,-20 6,0 10,-9 10,-20 0,-11 5,-20 10,-20 6,0 10,-13 10,-30 0,-16 5,-30 10,-30 6,0 10,-9 10,-20 0,-11 5,-20 10,-20 6,0 10,-9 10,-20 0,-11 5,-20 10,-20 6,0 10,-13 10,-30 0,-16 5,-30 10,-30 6,0 10,-8 10,-18 0,-10 9,-24 20,-32 11,-8 20,-20 20,-27 0,-17 106,-123 123,-123 7,0 19,-9 27,-20 8,-11 22,-20 32,-20 10,0 18,-4 18,-10 0,-5 14,-10 30,-10 17,0 30,-4 30,-10 0,-5 7,-10 16,-10 20,0 44,-24 44,-44 0,-9 5,-16 10,-16 6,0 10,-7 10,-15 0,-19 44,-65 62,-65 8,0 20,-9 28,-20 8,-11 22,-20 32,-20 10,0 18,-4 18,-10 0,-5 9,-10 20,-10 11,0 20,-4 20,-10 0,-5 14,-10 30,-10 17,0 30,-4 30,-10 0,-5 9,-10 20,-10 11,0 20,-4 20,-10 0,-5 9,-10 20,-10 11,0 20,-4 20,-10 0,-5 9,-10 20,-10 11,0 20,-4 20,-10 0,-5 14,-10 30,-10 17,0 30,-4 30,-10 0,-6 30,-10 70,-10 60,0 70,-2 70,-18 0,-10 9,-24 20,-32 11,-8 20,-20 20,-28 0,-17 24,-42 40,-42 7,0 25,-13 40,-30 15,-16 35,-30 44,-30 9,0 16,-4 16,-10 0,-5 9,-10 20,-10 11,0 20,-4 20,-10 0,-5 9,-10 20,-10 11,0 20,-4 20,-10 0,-5 14,-10 30,-10 17,0 30,-4 30,-10 0,-5 14,-10 30,-10 17,0 30,-4 30,-10 0,-6 56,-10 148,-10 136,0 149,-2 162,-20 8,-11 21,-20 30,-20 9,0 22,-9 30,-20 8,-11 22,-20 32,-20 10,0 18,-4 18,-10 0,-5 9,-10 20,-10 11,0 20,-4 20,-10 0,-5 9,-10 20,-10 11,0 20,-4 20,-10 0,-5 14,-10 30,-10 17,0 30,-4 30,-10 0,-5 14,-10 30,-10 17,0 30,-4 30,-10 0,-5 23,-10 50,-10 28,0 50,-4 50,-10 0,-6 40,-10 100,-10 60,0 100,4 100,10 0,6 13,10 29,10 16,0 31,6 34,13 3,8 11,5 24,-10 11,-13 28,-23 37,-23 9,0 16,-4 16,-10 0,-5 9,-10 20,-10 11,0 20,-4 20,-10 0,-5 9,-10 20,-10 11,0 20,-4 20,-10 0,-5 18,-10 40,-10 22,0 40,-4 40,-10 0,-6 70,-10 190,-10 120,0 190,4 190,10 0,6 13,10 29,10 16,0 32,6 35,13 5,9 7,9 12,0 3,-7 14,-13 25,-13 10,0 19,-4 19,-10 0,-5 9,-10 20,-10 11,0 20,-4 20,-10 0,-5 9,-10 20,-10 11,0 20,-4 20,-10 0,-5 14,-10 30,-10 17,0 30,-4 30,-10 0,-5 18,-10 40,-10 22,0 40,-4 40,-10 0,-6 60,-10 160,-10 100,0 160,4 160,10 0,6 23,10 50,10 28,0 50,-4 50,-10 0,-5 9,-10 20,-10 11,0 20,-4 20,-10 0,-6 63,-10 170,-10 107,0 170,-4 170,-10 0,-5 23,-10 50,-10 28,0 50,-4 50,-10 0,-5 14,-10 30,-10 17,0 30,-4 30,-10 0,-5 9,-10 20,-10 11,0 20,-4 20,-10 0,-5 9,-10 20,-10 11,0 20,-4 20,-10 0,-5 9,-10 20,-10 11,0 20,-4 20,-10 0,-5 14,-10 30,-10 17,0 30,-4 30,-10 0,-5 9,-10 20,-10 11,0 20,-4 20,-10 0,-5 9,-10 20,-10 11,0 20,-4 20,-10 0,-5 9,-10 20,-10 11,0 20,-4 20,-10 0,-5 14,-10 30,-10 17,0 30,-4 30,-10 0,-6 37,-10 90,-10 53,0 90,4 90,10 0,6 9,10 20,10 11,0 20,5 20,10 0,6 14,10 30,10 29,0 30,-1 30,-50 0,-27 5,-50 10,-50 6,0 10,-9 10,-20 0,-11 5,-20 10,-20 6,0 10,-7 10,-16 0,-19 24,-44 42,-44 8,0 20,-9 28,-20 8,-11 22,-20 32,-20 10,0 18,-4 18,-10 0,-5 9,-10 20,-10 11,0 20,-4 20,-10 0,-5 9,-10 20,-10 11,0 20,-4 20,-10 0,-5 14,-10 30,-10 17,0 30,-4 30,-10 0,-6 27,-10 60,-10 33,0 60,-4 60,-10 0,-6 37,-10 90,-10 53,0 90,4 90,10 0,22 53,9 80,-20 15,-16 34,-30 42,-30 7,0 20,-9 28,-20 8,-12 26,-20 42,-20 15,0 28,-4 28,-10 0,-5 9,-10 20,-10 11,0 20,-4 20,-10 0,-5 14,-10 30,-10 17,0 30,-4 30,-10 0,-5 14,-10 30,-10 17,0 30,-4 30,-10 0,-5 14,-10 30,-10 17,0 30,-4 30,-10 0,-5 23,-10 50,-10 28,0 50,-4 50,-10 0,-6 40,-10 100,-10 60,0 100,-4 100,-10 0,-5 8,-10 18,-10 10,0 24,-9 32,-20 8,-11 22,-20 32,-20 10,0 18,-4 18,-10 0,-5 9,-10 20,-10 11,0 20,-4 20,-10 0,-5 14,-10 30,-10 17,0 30,-4 30,-10 0,-5 14,-10 30,-10 17,0 30,-4 30,-10 0,-5 18,-10 40,-10 22,0 40,-4 40,-10 0,-5 23,-10 50,-10 28,0 50,-4 50,-10 0,-6 27,-10 60,-10 33,0 60,-4 60,-10 0,-6 33,-10 80,-10 47,0 80,4 80,10 0,6 17,10 38,10 26,0 42,-6 52,-20 8,-11 21,-20 30,-20 9,0 22,-9 30,-20 8,-11 22,-20 32,-20 10,0 18,-4 18,-10 0,-5 14,-10 30,-10 17,0 30,-4 30,-10 0,-5 14,-10 30,-10 17,0 30,-4 30,-10 0,-5 23,-10 50,-10 28,0 50,-4 50,-10 0,-6 33,-10 80,-10 47,0 80,-4 80,-10 0,-6 53,-10 140,-10 87,0 140,4 140,10 0,6 14,10 30,10 17,0 30,5 30,10 0,6 18,10 40,10 22,0 40,-4 40,-10 0,-5 9,-10 20,-10 11,0 20,-4 20,-10 0,-5 23,-10 50,-10 28,0 50,-4 50,-10 0,-6 57,-10 150,-10 93,0 150,4 150,10 0,6 33,10 80,10 47,0 80,4 80,10 0,6 14,10 30,10 17,0 30,5 30,10 0,6 14,10 30,10 17,0 30,5 30,10 0,6 7,10 16,10 9,0 26,10 37,22 13,16 21,19 24,11 3,-7 13,-13 24,-13 10,0 19,-4 19,-10 0,-6 47,-10 120,-10 73,0 120,4 120,10 0,6 18,10 40,10 22,0 40,5 40,10 0,6 14,10 30,10 17,0 30,5 30,10 0,6 14,10 30,10 17,0 30,5 30,10 0,6 14,10 30,10 17,0 30,5 30,10 0,6 9,10 20,10 11,0 20,5 20,10 0,6 14,10 30,10 17,0 30,5 30,10 0,6 9,10 20,10 11,0 20,5 20,10 0,6 7,10 15,10 23,0 105,86 105,110 0,12 6,28 14,36 17,16 46,19 46,4 0,-6 40,-10 100,-10 60,0 100,4 100,10 0,6 9,10 20,10 11,0 20,5 20,10 0,6 13,10 28,10 16,0 34,8 42,20 8,11 21,20 28,20 8,0 27,14 42,30 15,17 35,30 44,30 9,0 16,7 16,15 0,20 65,85 85,85 8,0 15,5 15,10 0,6 14,10 30,10 17,0 30,5 30,10 0,6 9,10 20,10 11,0 20,5 20,10 0,6 8,10 18,10 10,0 24,9 32,20 8,11 21,20 28,20 8,0 27,14 42,30 15,17 33,30 40,30 7,0 25,13 40,30 15,16 34,30 42,30 7,0 20,9 28,20 8,11 22,20 32,20 10,0 18,5 18,10 0,6 7,10 16,10 9,0 29,14 44,30 15,17 33,30 39,30 15,0 121,106 121,121 0,6 13,24 30,39 16,15 30,35 30,44 0,9 5,16 10,16 6,0 10,9 10,20 0,11 5,20 10,20 6,0 10,9 10,20 0,11 5,20 10,20 6,0 10,9 10,20 0,11 5,20 10,20 6,0 10,14 10,30 0,17 5,30 10,30 6,0 10,14 10,30 0,17 5,30 10,30 6,0 10,14 10,30 0,17 5,30 10,30 6,0 10,18 10,40 0,22 5,40 10,40 6,0 10,18 10,40 0,22 5,40 10,40 6,0 10,23 10,50 0,28 5,50 10,50 6,0 10,23 10,50 0,28 5,50 10,50 6,0 10,27 10,60 0,33 4,60 10,60 6,0 10,67 10,180 0,113 -4,180 -10,180 -5,0 -10,18 -10,40 0,22 -4,40 -10,40 -5,0 -10,9 -10,20 0,11 -4,20 -10,20 -5,0 -10,8 -10,18 0,10 -9,24 -20,32 -11,8 -20,20 -20,28 0,16 -65,82 -81,82 -6,0 -24,14 -39,30 -15,17 -34,30 -42,30 -7,0 -20,9 -28,20 -8,11 -21,20 -30,20 -9,0 -22,9 -30,20 -8,11 -21,20 -30,20 -9,0 -22,9 -30,20 -8,11 -22,20 -32,20 -10,0 -18,5 -18,10 0,6 -9,10 -20,10 -11,0 -20,5 -20,10 0,6 -9,10 -20,10 -11,0 -20,5 -20,10 0,6 -13,10 -30,10 -16,0 -30,5 -30,10 0,6 -9,10 -20,10 -11,0 -20,5 -20,10 0,6 -18,10 -40,10 -22,0 -40,5 -40,10 0,6 -13,10 -30,10 -16,0 -30,5 -30,10 0,6 -33,10 -80,10 -47,0 -80,4 -80,10 0,6 -37,10 -90,10 -53,0 -90,4 -90,10 0,6 -33,10 -80,10 -47,0 -80,4 -80,10 0,6 -27,10 -60,10 -33,0 -60,4 -60,10 0,6 -27,10 -60,10 -33,0 -60,4 -60,10 0,6 -22,10 -50,10 -27,0 -50,5 -50,10 0,6 -22,10 -50,10 -27,0 -50,5 -50,10 0,6 -18,10 -40,10 -22,0 -40,5 -40,10 0,6 -13,10 -30,10 -16,0 -30,5 -30,10 0,6 -13,10 -30,10 -16,0 -30,5 -30,10 0,6 -13,10 -30,10 -16,0 -30,5 -30,10 0,6 -13,10 -30,10 -16,0 -30,5 -30,10 0,6 -9,10 -20,10 -11,0 -20,5 -20,10 0,6 -9,10 -20,10 -11,0 -20,5 -20,10 0,6 -9,10 -20,10 -11,0 -20,5 -20,10 0,6 -8,10 -18,10 -10,0 -24,9 -32,20 -8,11 -22,20 -32,20 -10,0 -18,5 -18,10 0,6 -8,10 -18,10 -10,0 -24,9 -32,20 -8,11 -22,20 -32,20 -10,0 -18,5 -18,10 0,6 -9,10 -20,10 -11,0 -20,5 -20,10 0,6 -8,10 -18,10 -10,0 -24,9 -32,20 -8,11 -22,20 -32,20 -10,0 -18,5 -18,10 0,6 -9,10 -20,10 -11,0 -20,5 -20,10 0,6 -9,10 -20,10 -11,0 -20,5 -20,10 0,6 -9,10 -20,10 -11,0 -20,5 -20,10 0,6 -9,10 -20,10 -11,0 -20,5 -20,10 0,6 -9,10 -20,10 -11,0 -20,5 -20,10 0,6 -9,10 -20,10 -11,0 -20,5 -20,10 0,6 -7,10 -15,10 -25,0 -65,46 -65,75 0,14 -4,25 -10,25 -5,0 -10,9 -10,20 0,11 -4,20 -10,20 -5,0 -10,7 -10,15 0,9 -29,45 -65,80 -35,36 -71,65 -80,65 -8,0 -15,5 -15,10 0,6 -9,10 -20,10 -11,0 -20,5 -20,10 0,6 -13,10 -30,10 -16,0 -30,5 -30,10 0,6 -16,10 -36,10 -38,0 -64,18 -64,44 0,9 -4,16 -10,16 -5,0 -10,7 -10,15 0,19 -64,85 -82,85 -8,0 -20,9 -28,20 -8,11 -21,20 -30,20 -9,0 -22,9 -30,20 -8,11 -22,20 -32,20 -10,0 -18,5 -18,10 0,6 -13,10 -30,10 -16,0 -30,5 -30,10 0,6 -22,10 -50,10 -43,0 -50,3 -50,20 0,11 -4,20 -10,20 -5,0 -10,9 -10,20 0,11 -4,20 -10,20 -5,0 -10,7 -10,15 0,20 -125,145 -145,145 -8,0 -15,5 -15,10 0,6 -9,10 -20,10 -11,0 -20,5 -20,10 0,6 -13,10 -30,10 -16,0 -30,5 -30,10 0,6 -22,10 -50,10 -43,0 -50,3 -50,20 0,11 -4,20 -10,20 -5,0 -10,18 -10,40 0,22 -4,40 -10,40 -5,0 -10,9 -10,20 0,11 -4,20 -10,20 -5,0 -10,7 -10,15 0,20 -125,145 -145,145 -8,0 -15,5 -15,10 0,6 -9,10 -20,10 -11,0 -20,5 -20,10 0,6 -25,10 -56,10 -66,0 -84,14 -84,64 0,20 -4,36 -10,36 -5,0 -10,9 -10,20 0,11 -4,20 -10,20 -5,0 -10,7 -10,15 0,19 -124,145 -143,145 -7,0 -19,9 -27,20 -8,11 -22,20 -32,20 -10,0 -18,5 -18,10 0,6 -9,10 -20,10 -11,0 -20,5 -20,10 0,6 -9,10 -20,10 -11,0 -20,5 -20,10 0,6 -18,10 -40,10 -22,0 -40,5 -40,10 0,6 -13,10 -30,10 -16,0 -30,-4 -30,-10 0,-5 -4,-10 -10,-10 -5,0 -10,9 -10,20 0,11 -4,20 -10,20 -5,0 -10,14 -10,30 0,17 -4,30 -10,30 -5,0 -10,14 -10,30 0,17 -4,30 -10,30 -5,0 -10,14 -10,30 0,17 -4,30 -10,30 -5,0 -10,8 -10,18 0,10 -9,24 -20,32 -11,8 -20,20 -20,27 0,17 -86,103 -103,103 -7,0 -19,9 -27,20 -8,11 -22,20 -32,20 -10,0 -18,5 -18,10 0,6 -9,10 -20,10 -11,0 -20,5 -20,10 0,6 -9,10 -20,10 -11,0 -20,5 -20,10 0,6 -9,10 -20,10 -11,0 -20,5 -20,10 0,6 -22,10 -50,10 -43,0 -50,3 -50,20 0,11 -4,20 -10,20 -5,0 -10,14 -10,30 0,17 -4,30 -10,30 -5,0 -10,9 -10,20 0,11 -4,20 -10,20 -5,0 -10,7 -10,15 0,17 -184,205 -201,205 -6,0 -28,18 -49,40 -21,22 -44,40 -50,40 -7,0 -25,14 -40,30 -15,17 -35,30 -44,30 -9,0 -16,5 -16,10 0,6 -9,10 -20,10 -11,0 -20,5 -20,10 0,6 -9,10 -20,10 -11,0 -20,5 -20,10 0,6 -13,10 -30,10 -16,0 -30,5 -30,10 0,6 -13,10 -30,10 -16,0 -30,5 -30,10 0,6 -18,10 -40,10 -22,0 -40,5 -40,10 0,6 -18,10 -40,10 -22,0 -40,5 -40,10 0,6 -13,10 -30,10 -16,0 -30,-4 -30,-10 0,-5 -22,-10 -50,-10 -27,0 -50,-4 -50,-10 0,-5 -9,-10 -20,-10 -11,0 -20,-4 -20,-10 0,-5 -9,-10 -20,-10 -11,0 -20,-4 -20,-10 0,-5 -8,-10 -18,-10 -10,0 -24,-9 -32,-20 -8,-11 -20,-20 -27,-20 -16,0 -283,-265 -283,-281 0,-6 -13,-24 -30,-39 -16,-15 -30,-33 -30,-40 0,-6 -18,-29 -40,-50 -22,-21 -40,-44 -40,-50 0,-7 -13,-25 -30,-40 -16,-15 -30,-33 -30,-40 0,-7 -13,-25 -30,-40 -16,-15 -30,-33 -30,-40 0,-7 -14,-25 -30,-40 -17,-15 -30,-33 -30,-39 0,-6 -38,-49 -85,-96 l -85,-85 h -195 c -123,0 -195,4 -195,10 0,6 -27,10 -60,10 -33,0 -60,4 -60,10 0,6 -9,10 -20,10 -11,0 -20,5 -20,10 0,6 -9,10 -20,10 -11,0 -20,5 -20,10 0,6 -9,10 -20,10 -11,0 -20,5 -20,10 0,6 -8,10 -18,10 -10,0 -24,9 -32,20 -8,11 -21,20 -30,20 -9,0 -22,9 -30,20 -8,11 -20,20 -27,20 -16,0 -183,165 -183,181 0,6 -13,24 -30,39 -16,15 -30,33 -30,40 0,6 -18,29 -40,50 -22,21 -40,43 -40,49 0,16 -447,461 -463,461 -7,0 -19,9 -27,20 -8,11 -21,20 -30,20 -9,0 -22,9 -30,20 -8,12 -26,20 -42,20 -15,0 -28,5 -28,10 0,6 -30,10 -70,10 -40,0 -70,-4 -70,-10 z m 120,-100 c 0,-5 9,-10 20,-10 11,0 20,-4 20,-10 0,-5 9,-10 20,-10 11,0 20,-4 20,-10 0,-5 7,-10 16,-10 8,0 37,-22 64,-50 27,-27 54,-50 60,-50 14,0 100,-86 100,-100 0,-6 59,-69 130,-140 72,-71 130,-135 130,-141 0,-6 14,-24 30,-39 17,-15 30,-33 30,-40 0,-7 14,-25 30,-40 17,-15 30,-33 30,-39 0,-15 166,-181 181,-181 6,0 24,-13 39,-30 15,-16 34,-30 42,-30 7,0 20,-9 28,-20 8,-11 22,-20 32,-20 10,0 18,-4 18,-10 0,-5 9,-10 20,-10 11,0 20,-4 20,-10 0,-5 9,-10 20,-10 11,0 20,-4 20,-10 0,-5 9,-10 20,-10 11,0 20,-4 20,-10 0,-5 9,-10 20,-10 11,0 20,-4 20,-10 0,-5 23,-10 50,-10 28,0 50,-4 50,-10 0,-6 80,-10 220,-10 140,0 220,4 220,10 0,6 13,10 28,10 16,0 34,8 42,20 8,11 20,20 28,20 16,0 62,45 62,60 0,7 18,29 40,50 22,21 40,44 40,50 0,7 14,25 30,40 17,15 30,33 30,40 0,7 14,25 30,40 17,15 30,33 30,40 0,7 14,25 30,40 17,15 30,33 30,40 0,6 18,29 40,50 22,21 40,44 40,50 0,7 13,25 30,40 16,15 30,33 30,39 0,16 247,261 263,261 7,0 19,9 27,20 8,11 22,20 32,20 10,0 18,5 18,10 0,6 9,10 20,10 11,0 20,5 20,10 0,6 18,10 39,10 22,0 42,6 45,13 5,10 7,10 12,0 3,-8 25,-13 55,-13 27,0 49,-4 49,-10 0,-5 18,-10 40,-10 22,0 40,-4 40,-10 0,-5 14,-10 30,-10 17,0 30,-4 30,-10 0,-5 14,-10 30,-10 17,0 30,-4 30,-10 0,-5 9,-10 20,-10 11,0 20,-4 20,-10 0,-5 8,-10 18,-10 10,0 24,-9 32,-20 8,-11 21,-20 28,-20 7,0 31,-18 52,-40 21,-22 43,-40 49,-40 17,0 201,-188 201,-205 0,-8 5,-15 10,-15 6,0 10,-13 10,-30 0,-16 5,-30 10,-30 6,0 10,-18 10,-40 0,-22 5,-40 10,-40 6,0 10,-9 10,-20 0,-18 7,-20 80,-20 47,0 80,-4 80,-10 0,-5 9,-10 20,-10 11,0 20,-4 20,-10 0,-5 9,-10 20,-10 11,0 20,-4 20,-10 0,-5 8,-10 18,-10 10,0 24,-9 32,-20 8,-11 20,-20 28,-20 18,0 82,-66 82,-85 0,-8 5,-15 10,-15 6,0 10,-9 10,-20 0,-11 5,-20 10,-20 6,0 10,-9 10,-20 0,-11 5,-20 10,-20 6,0 10,-13 10,-30 0,-16 5,-30 10,-30 6,0 10,-9 10,-20 0,-11 5,-20 10,-20 6,0 10,-25 10,-56 0,-35 5,-61 14,-70 16,-16 86,-19 86,-4 0,6 14,10 30,10 17,0 30,-4 30,-10 0,-5 18,-10 40,-10 22,0 40,-4 40,-10 0,-5 9,-10 20,-10 11,0 20,-4 20,-10 0,-5 9,-10 20,-10 11,0 20,-4 20,-10 0,-5 7,-10 15,-10 20,0 145,-125 145,-145 0,-8 5,-15 10,-15 6,0 10,-27 10,-60 0,-33 4,-60 10,-60 6,0 10,-7 10,-16 0,-34 26,-44 114,-44 51,0 86,-4 86,-10 0,-5 9,-10 20,-10 11,0 20,-4 20,-10 0,-5 7,-10 16,-10 19,0 44,-24 44,-42 0,-8 9,-20 20,-28 12,-8 20,-26 20,-42 0,-15 5,-28 10,-28 6,0 10,-9 10,-20 0,-11 5,-20 10,-20 6,0 10,-21 10,-46 0,-47 16,-74 44,-74 9,0 16,-4 16,-10 0,-6 27,-10 60,-10 33,0 60,-4 60,-10 0,-5 14,-10 30,-10 17,0 30,-4 30,-10 0,-5 7,-10 15,-10 20,0 125,-105 125,-125 0,-8 5,-15 10,-15 6,0 10,-13 10,-30 0,-16 5,-30 10,-30 6,0 10,-7 10,-15 0,-22 52,-73 58,-57 4,14 82,16 82,2 0,-5 18,-10 40,-10 22,0 40,-4 40,-10 0,-5 8,-10 18,-10 10,0 24,-9 32,-20 8,-11 20,-20 28,-20 18,0 82,-66 82,-85 0,-8 5,-15 10,-15 6,0 10,-16 10,-36 0,-52 18,-64 94,-64 37,0 66,-4 66,-10 0,-5 14,-10 30,-10 17,0 30,-4 30,-10 0,-5 7,-10 15,-10 9,0 36,-20 60,-45 25,-24 45,-51 45,-60 0,-8 5,-15 10,-15 6,0 10,-9 10,-20 0,-11 5,-20 10,-20 6,0 10,-13 10,-30 0,-16 5,-30 10,-30 6,0 10,-7 10,-16 0,-20 24,-44 44,-44 9,0 16,-4 16,-10 0,-5 9,-10 20,-10 11,0 20,-4 20,-10 0,-5 9,-10 20,-10 11,0 20,-4 20,-10 0,-5 9,-10 20,-10 11,0 20,-4 20,-10 0,-5 9,-10 20,-10 11,0 20,-4 20,-10 0,-5 9,-10 20,-10 11,0 20,-4 20,-10 0,-5 9,-10 20,-10 11,0 20,-4 20,-10 0,-5 9,-10 20,-10 11,0 20,-4 20,-10 0,-5 9,-10 20,-10 11,0 20,-4 20,-10 0,-5 8,-10 18,-10 10,0 24,-9 32,-20 8,-11 22,-20 32,-20 10,0 18,-4 18,-10 0,-5 8,-10 18,-10 10,0 24,-9 32,-20 8,-11 22,-20 32,-20 10,0 18,-4 18,-10 0,-5 9,-10 20,-10 11,0 20,-4 20,-10 0,-5 8,-10 18,-10 10,0 24,-9 32,-20 8,-11 22,-20 32,-20 10,0 18,-4 18,-10 0,-5 9,-10 20,-10 11,0 20,-4 20,-10 0,-5 9,-10 20,-10 11,0 20,-4 20,-10 0,-5 14,-10 30,-10 17,0 30,-4 30,-10 0,-5 9,-10 20,-10 11,0 20,-4 20,-10 0,-5 14,-10 30,-10 17,0 30,-4 30,-10 0,-5 14,-10 30,-10 17,0 30,-4 30,-10 0,-5 18,-10 40,-10 22,0 40,-4 40,-10 0,-5 14,-10 30,-10 17,0 30,-4 30,-10 0,-5 23,-10 50,-10 28,0 50,-4 50,-10 0,-5 23,-10 50,-10 28,0 50,-4 50,-10 0,-5 23,-10 50,-10 28,0 50,-4 50,-10 0,-6 30,-10 70,-10 40,0 70,-4 70,-10 0,-6 33,-10 80,-10 47,0 80,-4 80,-10 0,-6 37,-10 90,-10 53,0 90,-4 90,-10 0,-6 30,-10 70,-10 40,0 70,-4 70,-10 0,-5 23,-10 50,-10 28,0 50,-4 50,-10 0,-5 14,-10 30,-10 17,0 30,-4 30,-10 0,-5 9,-10 20,-10 11,0 20,-4 20,-10 0,-5 14,-10 30,-10 17,0 30,-4 30,-10 0,-5 9,-10 20,-10 11,0 20,-4 20,-10 0,-5 8,-10 18,-10 10,0 24,-9 32,-20 8,-11 22,-20 32,-20 10,0 18,-4 18,-10 0,-5 8,-10 18,-10 10,0 24,-9 32,-20 8,-11 21,-20 28,-20 8,0 27,-13 42,-30 15,-16 33,-30 39,-30 16,0 81,-66 81,-82 0,-8 9,-20 20,-28 11,-8 20,-22 20,-32 0,-10 5,-18 10,-18 6,0 10,-13 10,-30 0,-16 5,-30 10,-30 6,0 10,-63 10,-170 0,-107 -4,-170 -10,-170 -6,0 -10,-27 -10,-60 0,-33 -4,-60 -10,-60 -5,0 -10,-22 -10,-50 0,-27 -4,-50 -10,-50 -5,0 -10,-22 -10,-50 0,-27 -4,-50 -10,-50 -5,0 -10,-18 -10,-40 0,-22 -4,-40 -10,-40 -5,0 -10,-18 -10,-40 0,-22 -4,-40 -10,-40 -5,0 -10,-13 -10,-30 0,-16 -4,-30 -10,-30 -5,0 -10,-13 -10,-30 0,-16 -4,-30 -10,-30 -5,0 -10,-13 -10,-30 0,-16 -4,-30 -10,-30 -5,0 -10,-9 -10,-20 0,-11 -4,-20 -10,-20 -5,0 -10,-9 -10,-20 0,-11 -4,-20 -10,-20 -5,0 -10,-7 -10,-16 0,-9 -14,-29 -30,-44 -17,-15 -30,-33 -30,-39 0,-15 -66,-81 -80,-81 -7,0 -29,-18 -50,-40 -21,-22 -46,-40 -54,-40 -9,0 -16,-4 -16,-10 0,-5 -8,-10 -18,-10 -10,0 -24,-9 -32,-20 -8,-11 -21,-20 -28,-20 -8,0 -27,-13 -42,-30 -15,-16 -33,-30 -40,-30 -7,0 -25,-14 -40,-30 -15,-17 -34,-30 -42,-30 -7,0 -20,-9 -28,-20 -8,-11 -22,-20 -32,-20 -10,0 -18,-4 -18,-10 0,-5 -9,-10 -20,-10 -11,0 -20,-4 -20,-10 0,-5 -21,-10 -46,-10 -44,0 -74,-16 -74,-39 0,-16 -127,-141 -143,-141 -7,0 -19,-9 -27,-20 -8,-12 -26,-20 -42,-20 -15,0 -28,-4 -28,-10 0,-6 -36,-10 -88,-10 -76,0 -89,3 -102,20 -27,38 -110,20 -110,-24 0,-9 -4,-16 -10,-16 -5,0 -10,-13 -10,-30 0,-16 -4,-30 -10,-30 -5,0 -10,-7 -10,-15 0,-20 -45,-65 -65,-65 -8,0 -15,-4 -15,-10 0,-5 -9,-10 -20,-10 -11,0 -20,-4 -20,-10 0,-5 -13,-10 -30,-10 -16,0 -30,-4 -30,-10 0,-5 -9,-10 -20,-10 -11,0 -20,-4 -20,-10 0,-5 -13,-10 -30,-10 -16,0 -30,-4 -30,-10 0,-5 -13,-10 -30,-10 -16,0 -30,-4 -30,-10 0,-5 -18,-10 -40,-10 -22,0 -40,-4 -40,-10 0,-6 -43,-10 -110,-10 -67,0 -110,4 -110,10 0,6 -8,10 -18,10 -10,0 -24,9 -32,20 -21,29 -37,25 -80,-20 -21,-22 -46,-40 -54,-40 -9,0 -16,-4 -16,-10 0,-5 -13,-10 -30,-10 -16,0 -30,-4 -30,-10 0,-6 -33,-10 -80,-10 -47,0 -80,-4 -80,-10 0,-6 -53,-10 -140,-10 -87,0 -140,4 -140,10 0,6 -22,10 -48,10 -36,0 -51,5 -62,20 -8,11 -21,20 -29,20 -7,0 -23,10 -34,22 -13,16 -21,19 -24,11 -3,-7 -12,-13 -22,-13 -9,0 -23,-9 -31,-20 -8,-11 -22,-20 -32,-20 -10,0 -18,-4 -18,-10 0,-6 -47,-10 -120,-10 -73,0 -120,4 -120,10 0,6 -33,10 -80,10 -47,0 -80,4 -80,10 0,6 -22,10 -50,10 -27,0 -50,5 -50,10 0,6 -18,10 -40,10 -22,0 -40,5 -40,10 0,6 -13,10 -30,10 -16,0 -30,5 -30,10 0,6 -7,10 -15,10 -18,0 -65,44 -65,60 0,22 -29,40 -64,40 -20,0 -36,-4 -36,-10 0,-5 -9,-10 -20,-10 -11,0 -20,-4 -20,-10 0,-6 -30,-10 -70,-10 -40,0 -70,4 -70,10 0,6 -27,10 -60,10 -33,0 -60,4 -60,10 0,6 -22,10 -50,10 -27,0 -50,5 -50,10 0,6 -18,10 -40,10 -22,0 -40,5 -40,10 0,6 -13,10 -30,10 -16,0 -30,5 -30,10 0,6 -13,10 -30,10 -16,0 -30,5 -30,10 0,6 -9,10 -20,10 -11,0 -20,5 -20,10 0,6 -9,10 -20,10 -11,0 -20,7 -20,15 0,25 -46,65 -75,65 -14,0 -25,-4 -25,-10 0,-6 -33,-10 -80,-10 -47,0 -80,4 -80,10 0,6 -22,10 -50,10 -27,0 -50,5 -50,10 0,6 -13,10 -30,10 -16,0 -30,5 -30,10 0,6 -13,10 -30,10 -16,0 -30,5 -30,10 0,6 -13,10 -30,10 -16,0 -30,5 -30,10 0,6 -9,10 -20,10 -11,0 -20,5 -20,10 0,6 -11,10 -25,10 -26,0 -75,40 -75,60 0,26 -30,40 -84,40 -31,0 -56,-4 -56,-10 0,-6 -33,-10 -80,-10 -47,0 -80,4 -80,10 0,6 -27,10 -60,10 -33,0 -60,4 -60,10 0,6 -13,10 -30,10 -16,0 -30,5 -30,10 0,6 -9,10 -20,10 -11,0 -20,5 -20,10 0,6 -9,10 -20,10 -11,0 -20,5 -20,10 0,6 -7,10 -16,10 -20,0 -44,24 -44,44 0,9 -4,16 -10,16 -6,0 -10,30 -10,70 0,40 -4,70 -10,70 -5,0 -10,16 -10,36 0,19 -6,42 -14,50 -17,16 -46,19 -46,4 0,-5 -8,-10 -18,-10 -10,0 -24,-9 -32,-20 -8,-11 -22,-20 -32,-20 -10,0 -18,-4 -18,-10 0,-5 -9,-10 -20,-10 -11,0 -20,-4 -20,-10 0,-6 -30,-10 -70,-10 -40,0 -70,4 -70,10 0,6 -13,10 -30,10 -16,0 -30,5 -30,10 0,6 -9,10 -20,10 -11,0 -20,5 -20,10 0,6 -9,10 -20,10 -11,0 -20,5 -20,10 0,6 -9,10 -20,10 -11,0 -20,5 -20,10 0,6 -13,10 -30,10 -16,0 -30,5 -30,10 0,6 -9,10 -20,10 -11,0 -20,5 -20,10 0,6 -9,10 -20,10 -11,0 -20,5 -20,10 0,6 -13,10 -30,10 -16,0 -30,5 -30,10 0,6 -9,10 -20,10 -11,0 -20,5 -20,10 0,6 -18,10 -40,10 -22,0 -40,5 -40,10 0,6 -63,10 -170,10 -107,0 -170,4 -170,10 0,6 -17,10 -38,10 -26,0 -42,6 -52,20 -15,21 -50,28 -50,10 0,-5 -9,-10 -20,-10 -11,0 -20,-4 -20,-10 0,-6 -57,-10 -150,-10 -93,0 -150,4 -150,10 0,6 -18,10 -40,10 -22,0 -40,5 -40,10 0,6 -13,10 -30,10 -16,0 -30,5 -30,10 0,6 -9,10 -20,10 -11,0 -20,5 -20,10 0,6 -8,10 -18,10 -10,0 -24,9 -32,20 -10,14 -26,20 -52,20 -21,0 -38,-4 -38,-10 0,-5 -9,-10 -20,-10 -11,0 -20,-4 -20,-10 0,-6 -63,-10 -170,-10 -107,0 -170,4 -170,10 0,6 -22,10 -50,10 -27,0 -50,5 -50,10 0,6 -9,10 -20,10 -11,0 -20,5 -20,10 0,6 -7,10 -16,10 -9,0 -29,14 -44,30 -21,23 -37,30 -64,30 -20,0 -36,-4 -36,-10 0,-5 -9,-10 -20,-10 -11,0 -20,-4 -20,-10 0,-6 -37,-10 -90,-10 -53,0 -90,4 -90,10 0,6 -22,10 -50,10 -27,0 -50,5 -50,10 0,6 -13,10 -30,10 -16,0 -30,5 -30,10 0,6 -13,10 -30,10 -16,0 -30,5 -30,10 0,6 -9,10 -20,10 -11,0 -20,5 -20,10 0,6 -9,10 -20,10 -11,0 -20,5 -20,10 0,6 -7,10 -15,10 -20,0 -65,45 -65,65 0,8 -9,15 -20,15 -11,0 -20,5 -20,10 0,6 -9,10 -20,10 -11,0 -20,-4 -20,-10 0,-6 -47,-10 -120,-10 -73,0 -120,4 -120,10 0,6 -18,10 -40,10 -22,0 -40,5 -40,10 0,6 -13,10 -30,10 -16,0 -30,5 -30,10 0,6 -9,10 -20,10 -11,0 -20,5 -20,10 0,6 -8,10 -18,10 -10,0 -24,9 -32,20 -8,11 -20,20 -28,20 -17,0 -42,25 -42,42 0,8 -9,20 -20,28 -11,8 -20,25 -20,38 0,26 -51,84 -58,64 -5,-15 -142,-17 -142,-2 0,6 -13,10 -30,10 -16,0 -30,5 -30,10 0,6 -9,10 -20,10 -11,0 -20,5 -20,10 0,6 -9,10 -20,10 -11,0 -20,5 -20,10 0,6 -9,10 -20,10 -11,0 -20,5 -20,10 0,6 -13,10 -30,10 -16,0 -30,5 -30,10 0,6 -9,10 -20,10 -11,0 -20,5 -20,10 0,6 -7,10 -15,10 -20,0 -65,45 -65,65 0,8 -4,15 -10,15 -5,0 -10,12 -10,26 0,29 -21,54 -44,54 -9,0 -16,5 -16,10 0,6 -13,10 -30,10 -16,0 -30,5 -30,10 0,6 -13,10 -30,10 -16,0 -30,5 -30,10 0,6 -7,10 -15,10 -20,0 -125,105 -125,125 0,8 -4,15 -10,15 -5,0 -10,9 -10,20 0,11 -4,20 -10,20 -5,0 -10,9 -10,20 0,11 -4,20 -10,20 -5,0 -10,9 -10,20 0,11 -4,20 -10,20 -5,0 -10,14 -10,30 0,17 -4,30 -10,30 -5,0 -10,9 -10,20 0,11 -4,20 -10,20 -5,0 -10,9 -10,20 0,11 -4,20 -10,20 -5,0 -10,14 -10,30 0,17 -4,30 -10,30 -5,0 -10,9 -10,20 0,11 -4,20 -10,20 -5,0 -10,9 -10,20 0,11 -4,20 -10,20 -5,0 -10,9 -10,20 0,11 -4,20 -10,20 -6,0 -10,27 -10,60 0,33 4,60 10,60 6,0 10,18 10,40 0,22 5,40 10,40 6,0 10,23 10,50 0,28 5,50 10,50 6,0 10,18 10,40 0,22 5,40 10,40 6,0 10,18 10,40 0,22 5,40 10,40 6,0 10,14 10,30 0,17 5,30 10,30 6,0 10,8 10,18 0,10 9,24 20,32 11,8 20,20 20,28 0,16 65,82 81,82 6,0 24,14 39,30 15,17 33,30 39,30 17,0 81,67 81,85 0,8 5,15 10,15 6,0 10,18 10,40 0,22 5,40 10,40 6,0 10,14 10,30 0,17 5,30 10,30 6,0 10,9 10,20 0,11 5,20 10,20 6,0 10,9 10,20 0,11 5,20 10,20 6,0 10,7 10,15 0,9 32,47 70,85 50,50 70,76 70,95 0,14 5,25 10,25 6,0 10,27 10,60 0,33 4,60 10,60 6,0 10,33 10,80 0,47 4,80 10,80 6,0 10,27 10,60 0,33 4,60 10,60 6,0 10,23 10,50 0,28 5,50 10,50 6,0 10,18 10,40 0,22 5,40 10,40 6,0 10,14 10,30 0,17 5,30 10,30 6,0 10,18 10,40 0,22 5,40 10,40 6,0 10,14 10,30 0,17 5,30 10,30 6,0 10,14 10,30 0,17 5,30 10,30 6,0 10,14 10,30 0,17 5,30 10,30 6,0 10,14 10,30 0,17 5,30 10,30 6,0 10,9 10,20 0,11 5,20 10,20 6,0 10,14 10,30 0,17 5,30 10,30 6,0 10,9 10,20 0,11 5,20 10,20 6,0 10,14 10,30 0,17 5,30 10,30 6,0 10,9 10,20 0,11 5,20 10,20 6,0 10,14 10,30 0,17 5,30 10,30 6,0 10,9 10,20 0,11 5,20 10,20 6,0 10,14 10,30 0,17 5,30 10,30 6,0 10,9 10,20 0,11 5,20 10,20 6,0 10,9 10,20 0,11 5,20 10,20 6,0 10,9 10,20 0,11 5,20 10,20 6,0 10,9 10,20 0,11 5,20 10,20 6,0 10,8 10,18 0,10 9,24 20,32 11,8 20,22 20,32 0,10 5,18 10,18 6,0 10,8 10,18 0,10 9,24 20,32 11,8 20,22 20,32 0,10 5,18 10,18 6,0 10,7 10,16 0,9 14,29 30,44 17,15 30,33 30,39 0,15 186,201 201,201 6,0 28,18 49,40 21,22 44,40 50,40 7,0 25,14 40,30 15,17 33,30 40,30 7,0 25,14 40,30 15,17 35,30 44,30 9,0 16,5 16,10 0,6 9,10 20,10 11,0 20,5 20,10 0,6 9,10 20,10 11,0 20,5 20,10 0,6 9,10 20,10 11,0 20,5 20,10 0,6 14,10 30,10 17,0 30,5 30,10 0,6 27,10 60,10 33,0 60,-4 60,-10 z"
       id="path10" />
    <path
       d="m 2920,8910 c 0,-5 -9,-10 -20,-10 -11,0 -20,-4 -20,-10 0,-5 -9,-10 -20,-10 -11,0 -20,-4 -20,-10 0,-5 -9,-10 -20,-10 -11,0 -20,-4 -20,-10 0,-5 -8,-10 -18,-10 -10,0 -24,-9 -32,-20 -8,-11 -21,-20 -30,-20 -9,0 -22,-9 -30,-20 -8,-11 -20,-20 -28,-20 -7,0 -35,-22 -62,-50 -27,-27 -54,-50 -59,-50 -16,0 -221,-207 -221,-223 0,-7 -9,-19 -20,-27 -11,-8 -20,-21 -20,-30 0,-9 -9,-22 -20,-30 -11,-8 -20,-21 -20,-30 0,-9 -9,-22 -20,-30 -11,-8 -20,-22 -20,-32 0,-10 -4,-18 -10,-18 -5,0 -10,-9 -10,-20 0,-11 -4,-20 -10,-20 -5,0 -10,-8 -10,-18 0,-10 -9,-24 -20,-32 -12,-8 -20,-26 -20,-42 0,-15 -4,-28 -10,-28 -5,0 -10,-9 -10,-20 0,-11 -4,-20 -10,-20 -5,0 -10,-9 -10,-20 0,-11 -4,-20 -10,-20 -5,0 -10,-9 -10,-20 0,-11 -4,-20 -10,-20 -5,0 -10,-13 -10,-30 0,-16 -4,-30 -10,-30 -5,0 -10,-9 -10,-20 0,-11 -4,-20 -10,-20 -5,0 -10,-13 -10,-30 0,-16 -4,-30 -10,-30 -5,0 -10,-9 -10,-20 0,-11 -4,-20 -10,-20 -5,0 -10,-13 -10,-30 0,-16 -4,-30 -10,-30 -5,0 -10,-9 -10,-20 0,-11 -4,-20 -10,-20 -5,0 -10,-13 -10,-30 0,-16 -4,-30 -10,-30 -5,0 -10,-13 -10,-30 0,-16 -4,-30 -10,-30 -5,0 -10,-13 -10,-30 0,-16 -4,-30 -10,-30 -5,0 -10,-13 -10,-30 0,-16 -4,-30 -10,-30 -5,0 -10,-13 -10,-30 0,-16 -4,-30 -10,-30 -5,0 -10,-13 -10,-30 0,-16 -4,-30 -10,-30 -5,0 -10,-18 -10,-40 0,-22 -4,-40 -10,-40 -5,0 -10,-22 -10,-50 0,-27 -4,-50 -10,-50 -5,0 -10,-22 -10,-50 0,-27 -4,-50 -10,-50 -6,0 -10,-33 -10,-80 0,-47 -4,-80 -10,-80 -6,0 -10,-30 -10,-70 0,-40 -4,-70 -10,-70 -5,0 -10,-18 -10,-40 0,-22 -4,-40 -10,-40 -5,0 -10,-13 -10,-30 0,-23 -4,-30 -20,-30 -13,0 -20,-7 -20,-20 0,-12 -7,-20 -16,-20 -19,0 -44,-24 -44,-42 0,-8 -9,-20 -20,-28 -11,-8 -20,-21 -20,-30 0,-9 -9,-22 -20,-30 -11,-8 -20,-22 -20,-32 0,-10 -4,-18 -10,-18 -5,0 -10,-13 -10,-30 0,-16 -4,-30 -10,-30 -5,0 -10,-22 -10,-50 0,-27 -4,-50 -10,-50 -5,0 -10,-7 -10,-15 0,-18 -64,-85 -81,-85 -6,0 -24,-13 -39,-30 -15,-16 -33,-30 -39,-30 -17,0 -101,-87 -101,-105 0,-8 -4,-15 -10,-15 -5,0 -10,-9 -10,-20 0,-11 -4,-20 -10,-20 -5,0 -10,-13 -10,-30 0,-16 -4,-30 -10,-30 -5,0 -10,-22 -10,-50 0,-27 -4,-50 -10,-50 -5,0 -10,-13 -10,-30 0,-16 -4,-30 -10,-30 -5,0 -10,-13 -10,-30 0,-16 -4,-30 -10,-30 -6,0 -10,-37 -10,-90 0,-53 4,-90 10,-90 6,0 10,-9 10,-20 0,-11 5,-20 10,-20 6,0 10,-9 10,-20 0,-11 5,-20 10,-20 6,0 10,-9 10,-20 0,-11 5,-20 10,-20 6,0 10,-9 10,-20 0,-11 5,-20 10,-20 6,0 10,-13 10,-30 0,-16 5,-30 10,-30 6,0 10,-9 10,-20 0,-11 5,-20 10,-20 6,0 10,-13 10,-30 0,-16 5,-30 10,-30 6,0 10,-9 10,-20 0,-11 5,-20 10,-20 6,0 10,-7 10,-15 0,-20 105,-125 125,-125 8,0 15,-4 15,-10 0,-5 14,-10 30,-10 17,0 30,-4 30,-10 0,-5 14,-10 30,-10 17,0 30,-4 30,-10 0,-5 18,-10 40,-10 22,0 40,5 40,10 0,6 9,10 20,10 11,0 20,-4 20,-10 0,-5 -4,-10 -10,-10 -5,0 -10,-13 -10,-30 0,-16 -4,-30 -10,-30 -5,0 -10,-11 -10,-25 0,-29 40,-75 65,-75 8,0 15,-4 15,-10 0,-5 9,-10 20,-10 11,0 20,-4 20,-10 0,-5 9,-10 20,-10 11,0 20,-4 20,-10 0,-5 14,-10 30,-10 17,0 30,-4 30,-10 0,-5 9,-10 20,-10 11,0 20,-4 20,-10 0,-5 9,-10 20,-10 11,0 20,-4 20,-10 0,-5 25,-10 56,-10 49,0 59,4 84,30 15,17 35,30 44,30 9,0 16,5 16,10 0,15 49,12 66,-4 10,-11 14,-40 14,-106 0,-90 0,-91 35,-125 19,-19 41,-35 50,-35 8,0 15,-4 15,-10 0,-5 9,-10 20,-10 11,0 20,-4 20,-10 0,-5 9,-10 20,-10 11,0 20,-4 20,-10 0,-5 14,-10 30,-10 17,0 30,-4 30,-10 0,-5 18,-10 40,-10 22,0 40,-4 40,-10 0,-6 29,-10 66,-10 67,0 94,13 94,44 0,9 5,16 10,16 6,0 10,7 10,15 0,21 72,93 78,77 2,-7 10,-12 18,-12 19,0 84,-65 84,-85 0,-8 -4,-15 -10,-15 -5,0 -10,-21 -10,-46 0,-47 16,-74 44,-74 9,0 16,-4 16,-10 0,-5 9,-10 20,-10 11,0 20,-4 20,-10 0,-5 9,-10 20,-10 11,0 20,-4 20,-10 0,-5 14,-10 30,-10 17,0 30,-4 30,-10 0,-5 14,-10 30,-10 17,0 30,-4 30,-10 0,-6 42,-10 106,-10 109,0 134,8 134,44 0,9 5,16 10,16 6,0 10,14 10,30 0,17 5,30 10,30 6,0 10,7 10,15 0,23 46,65 70,65 34,0 70,-44 70,-85 0,-19 -4,-35 -10,-35 -5,0 -10,-13 -10,-30 0,-16 5,-30 10,-30 6,0 10,-7 10,-15 0,-25 46,-65 75,-65 14,0 25,-4 25,-10 0,-6 33,-10 80,-10 47,0 80,-4 80,-10 0,-6 30,-10 70,-10 40,0 70,4 70,10 0,6 11,10 25,10 33,0 75,42 75,75 0,14 5,25 10,25 6,0 10,9 10,20 0,17 7,20 46,20 58,0 74,-16 74,-74 0,-25 5,-46 10,-46 6,0 10,-9 10,-20 0,-13 7,-20 20,-20 11,0 20,-4 20,-10 0,-5 14,-10 30,-10 17,0 30,-4 30,-10 0,-5 14,-10 30,-10 17,0 30,-4 30,-10 0,-6 57,-10 150,-10 143,0 150,1 150,20 0,11 5,20 10,20 6,0 10,18 10,40 v 40 h 56 c 35,0 61,-5 70,-14 17,-18 19,-63 2,-68 -8,-3 -3,-14 14,-31 27,-27 29,-27 163,-27 83,0 135,-4 135,-10 0,-6 30,-10 70,-10 40,0 70,-4 70,-10 0,-5 18,-10 40,-10 22,0 40,-4 40,-10 0,-5 9,-10 20,-10 11,0 20,-4 20,-10 0,-5 9,-10 20,-10 11,0 20,-4 20,-10 0,-5 14,-10 30,-10 17,0 30,-4 30,-10 0,-5 9,-10 20,-10 11,0 20,-4 20,-10 0,-5 9,-10 20,-10 11,0 20,-4 20,-10 0,-5 14,-10 30,-10 17,0 30,-4 30,-10 0,-5 9,-10 20,-10 11,0 20,-4 20,-10 0,-5 9,-10 20,-10 11,0 20,-4 20,-10 0,-6 30,-10 70,-10 40,0 70,4 70,10 0,6 7,10 16,10 8,0 33,18 54,40 25,26 47,40 64,40 14,0 26,5 26,10 0,6 9,10 20,10 11,0 20,-4 20,-10 0,-5 9,-10 20,-10 13,0 20,-7 20,-18 0,-10 9,-24 20,-32 11,-8 20,-22 20,-32 0,-10 5,-18 10,-18 6,0 10,-38 10,-95 0,-88 2,-98 25,-120 13,-14 31,-25 40,-25 8,0 15,-4 15,-10 0,-5 14,-10 30,-10 17,0 30,-4 30,-10 0,-5 18,-10 40,-10 22,0 40,-4 40,-10 0,-6 42,-10 106,-10 109,0 134,8 134,44 0,9 5,16 10,16 6,0 10,18 10,40 0,33 3,40 19,40 11,0 22,6 25,13 5,10 7,10 12,0 3,-7 17,-13 30,-13 32,0 74,-42 74,-75 0,-14 -4,-25 -10,-25 -5,0 -10,-18 -10,-40 0,-22 5,-40 10,-40 6,0 10,-7 10,-16 0,-20 24,-44 44,-44 9,0 16,-4 16,-10 0,-5 14,-10 30,-10 17,0 30,-4 30,-10 0,-5 14,-10 30,-10 17,0 30,-4 30,-10 0,-5 14,-10 30,-10 17,0 30,-4 30,-10 0,-5 18,-10 40,-10 22,0 40,-4 40,-10 0,-6 33,-10 80,-10 h 80 v 56 c 0,35 5,61 14,70 16,16 86,19 86,4 0,-5 7,-10 15,-10 25,0 65,-46 65,-75 0,-14 5,-25 10,-25 6,0 10,-13 10,-30 0,-16 -4,-30 -10,-30 -15,0 -12,-29 4,-46 8,-8 26,-14 40,-14 14,0 26,-4 26,-10 0,-5 14,-10 30,-10 17,0 30,-4 30,-10 0,-5 14,-10 30,-10 17,0 30,-4 30,-10 0,-5 23,-10 50,-10 28,0 50,-4 50,-10 0,-6 27,-10 60,-10 33,0 60,-4 60,-10 0,-6 29,-10 66,-10 67,0 94,13 94,44 0,9 5,16 10,16 6,0 10,9 10,20 0,11 5,20 10,20 6,0 10,9 10,20 0,11 7,20 15,20 19,0 105,-84 105,-103 0,-7 9,-19 20,-27 11,-8 20,-20 20,-28 0,-18 46,-62 65,-62 8,0 15,-4 15,-10 0,-5 18,-10 40,-10 22,0 40,-4 40,-10 0,-5 18,-10 40,-10 22,0 40,-4 40,-10 0,-6 27,-10 60,-10 33,0 60,-4 60,-10 0,-6 57,-10 150,-10 143,0 150,1 150,20 0,11 5,20 10,20 6,0 10,7 10,15 0,9 16,31 35,50 19,19 41,35 50,35 8,0 15,5 15,10 0,6 9,10 20,10 16,0 20,-7 20,-30 0,-16 5,-30 10,-30 6,0 10,-9 10,-20 0,-11 5,-20 10,-20 6,0 10,-7 10,-16 0,-20 24,-44 44,-44 9,0 16,-4 16,-10 0,-6 63,-10 170,-10 107,0 170,4 170,10 0,6 30,10 70,10 40,0 70,4 70,10 0,6 7,10 16,10 20,0 44,24 44,44 0,9 5,16 10,16 6,0 10,11 10,25 0,38 61,95 100,95 34,0 60,-19 60,-44 0,-9 5,-16 10,-16 6,0 10,-12 10,-26 0,-45 20,-54 124,-54 57,0 96,4 96,10 0,6 18,10 40,10 22,0 40,5 40,10 0,6 14,10 30,10 17,0 30,5 30,10 0,6 14,10 30,10 17,0 30,5 30,10 0,6 9,10 20,10 11,0 20,5 20,10 0,6 9,10 20,10 11,0 20,5 20,10 0,6 7,10 15,10 25,0 65,46 65,75 0,14 5,25 10,25 6,0 10,9 10,20 0,11 5,20 10,20 6,0 10,7 10,15 0,26 86,105 115,105 14,0 25,-4 25,-10 0,-5 7,-10 16,-10 20,0 44,-24 44,-44 0,-9 8,-16 20,-16 11,0 20,-4 20,-10 0,-5 9,-10 20,-10 11,0 20,5 20,10 0,6 14,10 30,10 17,0 30,5 30,10 0,6 9,10 20,10 11,0 20,5 20,10 0,6 8,10 18,10 10,0 24,9 32,20 8,11 20,20 28,20 18,0 42,25 42,44 0,9 5,16 10,16 6,0 10,18 10,40 0,33 3,40 20,40 11,0 20,5 20,10 0,6 30,10 70,10 40,0 70,4 70,10 0,6 9,10 20,10 11,0 20,5 20,10 0,6 8,10 18,10 10,0 24,9 32,20 8,11 21,20 28,20 7,0 31,18 52,40 21,22 45,40 52,40 7,0 20,9 28,20 8,11 21,20 30,20 9,0 22,9 30,20 8,11 22,20 32,20 10,0 18,5 18,10 0,6 7,10 15,10 20,0 165,145 165,165 0,8 5,15 10,15 6,0 10,9 10,20 0,11 5,20 10,20 6,0 10,9 10,20 0,11 5,20 10,20 6,0 10,9 10,20 0,11 5,20 10,20 6,0 10,9 10,20 0,11 5,20 10,20 6,0 10,18 10,40 0,22 5,40 10,40 6,0 10,14 10,30 0,17 5,30 10,30 6,0 10,18 10,40 0,22 5,40 10,40 6,0 10,18 10,40 0,22 5,40 10,40 6,0 10,23 10,50 0,28 5,50 10,50 6,0 10,30 10,70 0,40 4,70 10,70 6,0 10,40 10,100 0,60 4,100 10,100 6,0 10,14 10,30 0,17 -4,30 -10,30 -5,0 -10,23 -10,50 0,28 -4,50 -10,50 -5,0 -10,9 -10,20 0,11 -4,20 -10,20 -5,0 -10,7 -10,15 0,19 -84,105 -103,105 -7,0 -19,9 -27,20 -8,11 -21,20 -30,20 -9,0 -22,9 -30,20 -8,11 -21,20 -30,20 -9,0 -22,9 -30,20 -8,11 -21,20 -30,20 -9,0 -22,9 -30,20 -8,12 -26,20 -42,20 -15,0 -28,5 -28,10 0,6 -9,10 -20,10 -11,0 -20,5 -20,10 0,6 -13,10 -30,10 -16,0 -30,5 -30,10 0,6 -13,10 -30,10 -16,0 -30,5 -30,10 0,6 -27,10 -60,10 -33,0 -60,4 -60,10 0,6 -43,10 -110,10 -67,0 -110,4 -110,10 0,6 -27,10 -60,10 -33,0 -60,4 -60,10 0,6 -30,10 -70,10 -40,0 -70,4 -70,10 0,6 -30,10 -70,10 -40,0 -70,4 -70,10 0,6 -22,10 -50,10 -27,0 -50,5 -50,10 0,6 -22,10 -50,10 -27,0 -50,5 -50,10 0,6 -18,10 -40,10 -22,0 -40,5 -40,10 0,6 -18,10 -40,10 -22,0 -40,5 -40,10 0,6 -13,10 -30,10 -16,0 -30,5 -30,10 0,6 -13,10 -30,10 -16,0 -30,5 -30,10 0,6 -13,10 -30,10 -16,0 -30,5 -30,10 0,6 -9,10 -20,10 -11,0 -20,5 -20,10 0,6 -9,10 -20,10 -11,0 -20,5 -20,10 0,6 -9,10 -20,10 -11,0 -20,5 -20,10 0,6 -9,10 -20,10 -11,0 -20,5 -20,10 0,6 -9,10 -20,10 -11,0 -20,5 -20,10 0,6 -9,10 -20,10 -11,0 -20,5 -20,10 0,6 -8,10 -18,10 -10,0 -24,9 -32,20 -8,11 -22,20 -32,20 -10,0 -18,5 -18,10 0,6 -9,10 -20,10 -11,0 -20,5 -20,10 0,6 -8,10 -18,10 -10,0 -24,9 -32,20 -8,11 -22,20 -32,20 -10,0 -18,5 -18,10 0,6 -9,10 -20,10 -11,0 -20,5 -20,10 0,6 -9,10 -20,10 -11,0 -20,5 -20,10 0,6 -8,10 -18,10 -10,0 -24,9 -32,20 -8,11 -22,20 -32,20 -10,0 -18,5 -18,10 0,6 -9,10 -20,10 -11,0 -20,5 -20,10 0,6 -9,10 -20,10 -11,0 -20,5 -20,10 0,6 -9,10 -20,10 -11,0 -20,5 -20,10 0,6 -9,10 -20,10 -11,0 -20,5 -20,10 0,6 -9,10 -20,10 -11,0 -20,5 -20,10 0,6 -7,10 -16,10 -20,0 -44,24 -44,44 0,9 -4,16 -10,16 -5,0 -10,18 -10,40 0,22 -4,40 -10,40 -5,0 -10,7 -10,15 0,9 -20,36 -45,60 -24,25 -51,45 -60,45 -8,0 -15,5 -15,10 0,6 -27,10 -60,10 -33,0 -60,-4 -60,-10 0,-5 -13,-10 -29,-10 -16,0 -31,-6 -33,-12 -6,-17 -38,14 -38,36 0,9 -4,16 -10,16 -6,0 -10,27 -10,60 0,33 -4,60 -10,60 -5,0 -10,7 -10,15 0,20 -65,85 -85,85 -8,0 -15,5 -15,10 0,6 -9,10 -20,10 -11,0 -20,5 -20,10 0,6 -27,10 -60,10 -33,0 -60,-4 -60,-10 0,-16 -89,-12 -106,4 -8,8 -14,34 -14,60 0,25 -4,46 -10,46 -5,0 -10,14 -10,30 0,17 -4,30 -10,30 -5,0 -10,12 -10,26 0,28 -20,54 -42,54 -8,0 -20,9 -28,20 -8,11 -22,20 -32,20 -10,0 -18,5 -18,10 0,6 -13,10 -30,10 -16,0 -30,5 -30,10 0,6 -39,10 -96,10 -69,0 -99,4 -110,14 -10,11 -14,41 -14,110 0,57 -4,96 -10,96 -5,0 -10,8 -10,18 0,10 -9,24 -20,32 -11,8 -20,22 -20,32 0,11 -7,18 -18,18 -10,0 -24,9 -32,20 -10,14 -26,20 -52,20 -21,0 -38,-4 -38,-10 0,-16 -149,-13 -166,4 -10,11 -14,41 -14,110 0,57 -4,96 -10,96 -5,0 -10,9 -10,20 0,11 -4,20 -10,20 -5,0 -10,7 -10,16 0,18 -24,44 -40,44 -7,0 -25,14 -40,30 -15,17 -35,30 -44,30 -9,0 -16,5 -16,10 0,6 -13,10 -30,10 -16,0 -30,5 -30,10 0,6 -18,10 -40,10 -22,0 -40,-4 -40,-10 0,-5 -13,-10 -30,-10 -16,0 -30,-4 -30,-10 0,-6 -27,-10 -60,-10 h -60 v 30 c 0,17 -4,30 -10,30 -6,0 -10,37 -10,90 0,53 -4,90 -10,90 -5,0 -10,14 -10,30 0,17 -4,30 -10,30 -5,0 -10,14 -10,30 0,17 -4,30 -10,30 -5,0 -10,7 -10,15 0,19 -84,105 -103,105 -7,0 -19,9 -27,20 -8,11 -22,20 -32,20 -10,0 -18,5 -18,10 0,6 -30,10 -70,10 -40,0 -70,-4 -70,-10 0,-5 -11,-10 -25,-10 -29,0 -75,40 -75,65 0,8 -4,15 -10,15 -5,0 -10,18 -10,40 0,22 -4,40 -10,40 -5,0 -10,18 -10,40 0,22 -4,40 -10,40 -5,0 -10,9 -10,20 0,11 -4,20 -10,20 -5,0 -10,7 -10,15 0,18 -64,85 -80,85 -6,0 -33,23 -60,50 -27,28 -54,50 -60,50 -7,0 -25,14 -40,30 -15,17 -35,30 -44,30 -9,0 -16,5 -16,10 0,6 -9,10 -20,10 -11,0 -20,5 -20,10 0,6 -9,10 -20,10 -11,0 -20,5 -20,10 0,6 -13,10 -30,10 -16,0 -30,5 -30,10 0,6 -13,10 -30,10 -16,0 -30,5 -30,10 0,6 -18,10 -40,10 -22,0 -40,5 -40,10 0,6 -18,10 -40,10 -22,0 -40,-4 -40,-10 0,-5 -13,-10 -28,-10 -16,0 -34,-8 -42,-20 -8,-11 -20,-20 -27,-20 -16,0 -283,-265 -283,-281 0,-6 -14,-24 -30,-39 -17,-15 -30,-33 -30,-40 0,-7 -13,-25 -30,-40 -16,-15 -30,-33 -30,-40 0,-6 -18,-29 -40,-50 -22,-21 -40,-44 -40,-50 0,-6 -18,-29 -40,-50 -22,-21 -40,-45 -40,-52 0,-7 -9,-20 -20,-28 -11,-8 -20,-20 -20,-27 0,-17 -166,-183 -183,-183 -7,0 -19,-9 -27,-20 -10,-14 -26,-20 -52,-20 -21,0 -38,-4 -38,-10 0,-6 -70,-10 -190,-10 -120,0 -190,4 -190,10 0,6 -30,10 -70,10 -40,0 -70,4 -70,10 0,6 -18,10 -40,10 -22,0 -40,5 -40,10 0,6 -9,10 -20,10 -11,0 -20,5 -20,10 0,6 -9,10 -20,10 -11,0 -20,5 -20,10 0,6 -8,10 -18,10 -10,0 -24,9 -32,20 -8,11 -22,20 -32,20 -10,0 -18,5 -18,10 0,6 -8,10 -18,10 -10,0 -24,9 -32,20 -8,11 -21,20 -28,20 -8,0 -27,14 -42,30 -15,17 -33,30 -39,30 -15,0 -161,146 -161,161 0,6 -13,24 -30,39 -16,15 -30,34 -30,42 0,7 -9,20 -20,28 -11,8 -20,20 -20,28 0,7 -36,48 -80,92 -44,44 -80,84 -80,90 0,15 -267,280 -283,280 -7,0 -19,9 -27,20 -8,11 -21,20 -30,20 -9,0 -22,9 -30,20 -12,16 -26,20 -72,20 -32,0 -58,-4 -58,-10 z m 800,-1500 c 0,-5 9,-10 20,-10 11,0 20,-4 20,-10 0,-5 9,-10 20,-10 11,0 20,-4 20,-10 0,-5 7,-10 15,-10 20,0 65,-45 65,-65 0,-8 5,-15 10,-15 6,0 10,-9 10,-20 0,-11 5,-20 10,-20 6,0 10,-18 10,-40 0,-22 5,-40 10,-40 6,0 10,-13 10,-30 0,-16 -4,-30 -10,-30 -5,0 -10,-22 -10,-50 0,-27 -4,-50 -10,-50 -5,0 -10,-13 -10,-30 0,-16 -4,-30 -10,-30 -5,0 -10,-13 -10,-30 0,-16 -4,-30 -10,-30 -5,0 -10,-9 -10,-20 0,-11 -4,-20 -10,-20 -5,0 -10,-9 -10,-20 0,-11 -4,-20 -10,-20 -5,0 -10,-8 -10,-18 0,-10 -9,-24 -20,-32 -11,-8 -20,-22 -20,-32 0,-10 -4,-18 -10,-18 -5,0 -10,-8 -10,-18 0,-10 -9,-24 -20,-32 -11,-8 -20,-21 -20,-28 0,-8 -13,-27 -30,-42 -16,-15 -30,-33 -30,-40 0,-7 -13,-25 -30,-40 -16,-15 -30,-33 -30,-40 0,-6 -22,-33 -50,-60 -27,-27 -50,-54 -50,-60 0,-6 -63,-73 -140,-150 -77,-77 -140,-142 -140,-145 0,-3 14,-5 30,-5 17,0 30,5 30,10 0,6 18,10 40,10 22,0 40,5 40,10 0,6 18,10 40,10 22,0 40,5 40,10 0,6 9,10 20,10 11,0 20,5 20,10 0,6 14,10 30,10 17,0 30,5 30,10 0,6 9,10 20,10 11,0 20,5 20,10 0,6 9,10 20,10 11,0 20,5 20,10 0,6 9,10 20,10 11,0 20,5 20,10 0,6 7,10 15,10 25,0 65,46 65,75 0,14 5,25 10,25 6,0 10,14 10,30 0,17 5,30 10,30 6,0 10,14 10,30 0,17 5,30 10,30 6,0 10,14 10,30 0,17 5,30 10,30 6,0 10,14 10,30 0,17 5,30 10,30 6,0 10,14 10,30 0,17 5,30 10,30 6,0 10,14 10,30 0,17 5,30 10,30 6,0 10,9 10,20 0,11 5,20 10,20 6,0 10,9 10,20 0,11 5,20 10,20 6,0 10,7 10,16 0,8 6,22 14,30 8,8 22,14 30,14 9,0 16,5 16,10 0,6 14,10 30,10 17,0 30,-4 30,-10 0,-5 11,-10 25,-10 28,0 75,-40 75,-64 0,-8 6,-17 13,-20 10,-5 10,-7 0,-12 -7,-3 -13,-23 -13,-45 0,-21 -4,-39 -10,-39 -5,0 -10,-13 -10,-30 0,-16 -4,-30 -10,-30 -5,0 -10,-13 -10,-30 0,-16 -4,-30 -10,-30 -5,0 -10,-9 -10,-20 0,-11 2,-20 5,-20 3,0 37,32 75,70 38,39 75,70 82,70 8,0 20,9 28,20 8,11 22,20 32,20 10,0 18,5 18,10 0,6 14,10 30,10 17,0 30,5 30,10 0,6 18,10 40,10 22,0 40,5 40,10 0,6 14,10 30,10 17,0 30,-4 30,-10 0,-5 14,-10 30,-10 17,0 30,-4 30,-10 0,-5 8,-10 18,-10 10,0 24,-9 32,-20 8,-11 22,-20 32,-20 11,0 18,-7 18,-18 0,-10 9,-24 20,-32 11,-8 20,-22 20,-32 0,-10 5,-18 10,-18 6,0 10,-50 10,-130 0,-80 -4,-130 -10,-130 -5,0 -10,-18 -10,-40 0,-22 -4,-40 -10,-40 -5,0 -10,-13 -10,-30 0,-16 -4,-30 -10,-30 -5,0 -10,-13 -10,-30 0,-16 -4,-30 -10,-30 -5,0 -10,-9 -10,-20 0,-11 -4,-20 -10,-20 -5,0 -10,-13 -10,-30 0,-16 -4,-30 -10,-30 -5,0 -10,-9 -10,-20 0,-11 -4,-20 -10,-20 -5,0 -10,-13 -10,-30 0,-16 -4,-30 -10,-30 -5,0 -10,-9 -10,-20 0,-11 -4,-20 -10,-20 -5,0 -10,-9 -10,-20 0,-11 -4,-20 -10,-20 -5,0 -10,-9 -10,-20 0,-11 -4,-20 -10,-20 -5,0 -10,-13 -10,-30 0,-16 -4,-30 -10,-30 -5,0 -10,-9 -10,-20 0,-11 -4,-20 -10,-20 -5,0 -10,-9 -10,-20 0,-11 -4,-20 -10,-20 -5,0 -10,-13 -10,-30 0,-16 -4,-30 -10,-30 -5,0 -10,-9 -10,-20 0,-11 -4,-20 -10,-20 -5,0 -10,-22 -10,-49 0,-30 -5,-51 -12,-53 -9,-3 -7,-10 6,-24 14,-13 21,-15 24,-6 2,6 12,12 23,12 10,0 19,5 19,10 0,6 7,10 15,10 19,0 145,124 145,143 0,7 9,19 20,27 11,8 20,21 20,30 0,9 9,22 20,30 11,8 20,21 20,30 0,9 9,22 20,30 11,8 20,22 20,32 0,10 5,18 10,18 6,0 10,8 10,18 0,10 9,24 20,32 11,8 20,22 20,32 0,10 5,18 10,18 6,0 10,9 10,20 0,11 5,20 10,20 6,0 10,14 10,30 0,17 5,30 10,30 6,0 10,14 10,30 0,17 5,30 10,30 6,0 10,14 10,30 0,17 5,30 10,30 6,0 10,14 10,30 0,17 5,30 10,30 6,0 10,14 10,30 0,17 5,30 10,30 6,0 10,14 10,30 0,17 5,30 10,30 6,0 10,14 10,30 0,17 5,30 10,30 6,0 10,14 10,30 0,17 5,30 10,30 6,0 10,14 10,30 0,17 5,30 10,30 6,0 10,11 10,25 0,16 13,39 35,60 33,33 38,35 105,35 70,0 71,0 115,-45 25,-24 45,-51 45,-60 0,-8 5,-15 10,-15 6,0 10,-18 10,-40 0,-22 5,-40 10,-40 6,0 10,-9 10,-20 0,-11 5,-20 10,-20 6,0 10,-7 10,-15 0,-9 16,-31 35,-50 19,-19 41,-35 50,-35 8,0 15,-4 15,-10 0,-5 18,-10 40,-10 22,0 40,-4 40,-10 0,-5 7,-10 16,-10 31,0 44,-27 44,-94 0,-37 -4,-66 -10,-66 -5,0 -10,-13 -10,-30 0,-16 -4,-30 -10,-30 -5,0 -10,-9 -10,-20 0,-11 -4,-20 -10,-20 -5,0 -10,-13 -10,-30 0,-16 -4,-30 -10,-30 -5,0 -10,-9 -10,-20 0,-11 -4,-20 -10,-20 -5,0 -10,-13 -10,-30 0,-16 -4,-30 -10,-30 -5,0 -10,-13 -10,-30 0,-16 -4,-30 -10,-30 -5,0 -10,-9 -10,-20 0,-11 -4,-20 -10,-20 -5,0 -10,-13 -10,-30 0,-16 -4,-30 -10,-30 -5,0 -10,-18 -10,-40 0,-22 -4,-40 -10,-40 -5,0 -10,-13 -10,-30 0,-16 -4,-30 -10,-30 -5,0 -10,-22 -10,-50 0,-27 -4,-50 -10,-50 -6,0 -10,-30 -10,-70 0,-40 4,-70 10,-70 6,0 10,-7 10,-16 0,-25 26,-44 59,-44 26,0 45,14 106,75 41,41 75,81 75,88 0,7 9,19 20,27 11,8 20,21 20,30 0,9 9,22 20,30 12,8 20,26 20,42 0,15 5,28 10,28 6,0 10,14 10,30 0,17 5,30 10,30 6,0 10,14 10,30 0,17 5,30 10,30 6,0 10,14 10,30 0,17 5,30 10,30 6,0 10,9 10,20 0,11 5,20 10,20 6,0 10,14 10,30 0,17 5,30 10,30 6,0 10,9 10,20 0,11 5,20 10,20 6,0 10,9 10,20 0,11 5,20 10,20 6,0 10,9 10,20 0,11 5,20 10,20 6,0 10,9 10,20 0,11 5,20 10,20 6,0 10,9 10,20 0,11 5,20 10,20 6,0 10,9 10,20 0,11 5,20 10,20 6,0 10,9 10,20 0,11 5,20 10,20 6,0 10,9 10,20 0,11 5,20 10,20 6,0 10,9 10,20 0,11 5,20 10,20 6,0 10,9 10,20 0,11 5,20 10,20 6,0 10,8 10,18 0,10 9,24 20,32 11,8 20,21 20,30 0,9 9,22 20,30 11,8 20,22 20,32 0,16 10,18 80,18 47,0 80,-4 80,-10 0,-5 7,-10 15,-10 9,0 31,-16 50,-35 27,-26 35,-43 35,-70 0,-19 -4,-35 -10,-35 -5,0 -10,-9 -10,-20 0,-11 -4,-20 -10,-20 -5,0 -10,-9 -10,-20 0,-11 -4,-20 -10,-20 -5,0 -10,-9 -10,-20 0,-11 -4,-20 -10,-20 -5,0 -10,-8 -10,-18 0,-10 -9,-24 -20,-32 -11,-8 -20,-22 -20,-32 0,-10 -4,-18 -10,-18 -5,0 -10,-9 -10,-20 0,-11 -4,-20 -10,-20 -5,0 -10,-9 -10,-20 0,-11 -4,-20 -10,-20 -5,0 -10,-9 -10,-20 0,-11 -4,-20 -10,-20 -5,0 -10,-9 -10,-20 0,-11 -4,-20 -10,-20 -5,0 -10,-9 -10,-20 0,-11 -4,-20 -10,-20 -5,0 -10,-9 -10,-20 0,-11 -4,-20 -10,-20 -5,0 -10,-9 -10,-20 0,-11 -4,-20 -10,-20 -5,0 -10,-9 -10,-20 0,-11 -4,-20 -10,-20 -5,0 -10,-13 -10,-30 0,-16 -4,-30 -10,-30 -5,0 -10,-9 -10,-20 0,-11 -4,-20 -10,-20 -5,0 -10,-9 -10,-20 0,-11 -4,-20 -10,-20 -5,0 -10,-13 -10,-30 0,-16 -4,-30 -10,-30 -5,0 -10,-9 -10,-20 0,-11 -4,-20 -10,-20 -5,0 -10,-13 -10,-30 0,-16 -4,-30 -10,-30 -5,0 -10,-18 -10,-40 0,-22 -4,-40 -10,-40 -5,0 -10,-18 -10,-40 0,-22 -4,-40 -10,-40 -17,0 -12,-90 7,-108 12,-12 18,-13 21,-4 2,6 16,12 31,12 15,0 33,9 41,20 8,11 20,20 27,20 16,0 223,205 223,221 0,6 14,24 30,39 17,15 30,33 30,40 0,7 14,25 30,40 17,15 30,34 30,42 0,7 9,20 20,28 11,8 20,21 20,30 0,9 9,22 20,30 11,8 20,22 20,32 0,10 5,18 10,18 6,0 10,8 10,18 0,10 9,24 20,32 11,8 20,22 20,32 0,10 5,18 10,18 6,0 10,9 10,20 0,11 5,20 10,20 6,0 10,9 10,20 0,11 5,20 10,20 6,0 10,9 10,20 0,11 5,20 10,20 6,0 10,9 10,20 0,11 5,20 10,20 6,0 10,9 10,20 0,11 5,20 10,20 6,0 10,9 10,20 0,11 5,20 10,20 6,0 10,9 10,20 0,11 5,20 10,20 6,0 10,9 10,20 0,11 5,20 10,20 6,0 10,7 10,15 0,9 16,31 35,50 28,29 42,35 75,35 43,0 90,-33 90,-64 0,-8 6,-17 13,-20 10,-5 10,-7 0,-12 -7,-3 -13,-19 -13,-35 0,-16 -4,-29 -10,-29 -5,0 -10,-9 -10,-20 0,-11 -4,-20 -10,-20 -5,0 -10,-9 -10,-20 0,-11 -4,-20 -10,-20 -5,0 -10,-9 -10,-20 0,-11 -4,-20 -10,-20 -5,0 -10,-9 -10,-20 0,-11 -4,-20 -10,-20 -5,0 -10,-9 -10,-20 0,-11 -4,-20 -10,-20 -5,0 -10,-9 -10,-20 0,-11 -4,-20 -10,-20 -5,0 -10,-9 -10,-20 0,-11 -4,-20 -10,-20 -5,0 -10,-9 -10,-20 0,-11 -4,-20 -10,-20 -5,0 -10,-9 -10,-20 0,-11 -4,-20 -10,-20 -5,0 -10,-9 -10,-20 0,-11 -4,-20 -10,-20 -5,0 -10,-9 -10,-20 0,-11 -4,-20 -10,-20 -5,0 -10,-13 -10,-30 0,-16 -4,-30 -10,-30 -5,0 -10,-9 -10,-20 0,-11 -4,-20 -10,-20 -5,0 -10,-9 -10,-20 0,-11 -4,-20 -10,-20 -5,0 -10,-9 -10,-20 0,-11 -4,-20 -10,-20 -5,0 -10,-9 -10,-20 0,-11 -4,-20 -10,-20 -5,0 -10,-13 -10,-30 0,-16 -4,-30 -10,-30 -5,0 -10,-9 -10,-20 0,-11 -4,-20 -10,-20 -5,0 -10,-9 -10,-20 0,-11 -4,-20 -10,-20 -5,0 -10,-13 -10,-30 0,-16 -4,-30 -10,-30 -5,0 -10,-13 -10,-30 0,-16 -4,-30 -10,-30 -5,0 -10,-13 -10,-30 0,-16 -4,-30 -10,-30 -5,0 -10,-22 -10,-50 0,-47 2,-50 25,-50 19,0 51,25 120,95 52,52 95,101 95,108 0,7 9,19 20,27 11,8 20,21 20,30 0,9 9,22 20,30 11,8 20,21 20,30 0,9 9,22 20,30 11,8 20,22 20,32 0,10 5,18 10,18 6,0 10,9 10,20 0,11 5,20 10,20 6,0 10,9 10,20 0,11 5,20 10,20 6,0 10,9 10,20 0,11 5,20 10,20 6,0 10,9 10,20 0,11 5,20 10,20 6,0 10,9 10,20 0,11 5,20 10,20 6,0 10,14 10,30 0,17 5,30 10,30 6,0 10,14 10,30 0,17 5,30 10,30 6,0 10,14 10,30 0,17 5,30 10,30 6,0 10,14 10,30 0,17 5,30 10,30 6,0 10,14 10,30 0,17 5,30 10,30 6,0 10,14 10,30 0,17 5,30 10,30 6,0 10,14 10,30 0,17 5,30 10,30 6,0 10,9 10,20 0,11 5,20 10,20 6,0 10,11 10,25 0,29 40,75 65,75 8,0 15,5 15,10 0,6 18,10 40,10 22,0 40,-4 40,-10 0,-5 7,-10 15,-10 9,0 27,-11 40,-25 22,-21 25,-33 25,-90 0,-37 -4,-65 -10,-65 -5,0 -10,-13 -10,-30 0,-16 -4,-30 -10,-30 -5,0 -10,-13 -10,-29 0,-16 -6,-31 -12,-34 -7,-2 -10,-8 -6,-12 4,-4 25,11 47,34 22,22 45,41 51,41 7,0 25,14 40,30 15,17 34,30 42,30 7,0 20,9 28,20 8,11 22,20 32,20 10,0 18,5 18,10 0,6 14,10 30,10 17,0 30,5 30,10 0,6 30,10 70,10 40,0 70,-4 70,-10 0,-5 14,-10 30,-10 17,0 30,-4 30,-10 0,-5 7,-10 15,-10 26,0 105,-86 105,-115 0,-14 5,-25 10,-25 6,0 10,-50 10,-130 0,-80 -4,-130 -10,-130 -5,0 -10,-18 -10,-40 0,-22 -4,-40 -10,-40 -5,0 -10,-13 -10,-30 0,-16 -4,-30 -10,-30 -5,0 -10,-9 -10,-20 0,-11 -4,-20 -10,-20 -5,0 -10,-13 -10,-30 0,-16 -4,-30 -10,-30 -5,0 -10,-9 -10,-20 0,-11 -4,-20 -10,-20 -5,0 -10,-13 -10,-30 0,-16 -4,-30 -10,-30 -5,0 -10,-9 -10,-20 0,-11 -4,-20 -10,-20 -5,0 -10,-13 -10,-30 0,-16 -4,-30 -10,-30 -5,0 -10,-9 -10,-20 0,-11 -4,-20 -10,-20 -5,0 -10,-9 -10,-20 0,-11 -4,-20 -10,-20 -5,0 -10,-9 -10,-20 0,-11 -4,-20 -10,-20 -5,0 -10,-13 -10,-30 0,-16 -4,-30 -10,-30 -5,0 -10,-9 -10,-20 0,-11 -4,-20 -10,-20 -5,0 -10,-9 -10,-20 0,-11 -4,-20 -10,-20 -5,0 -10,-13 -10,-30 0,-16 -4,-30 -10,-30 -5,0 -10,-18 -10,-40 0,-22 -4,-40 -10,-40 -5,0 -10,-9 -10,-20 0,-16 7,-20 38,-20 26,0 42,6 52,20 8,11 20,20 27,20 16,0 103,85 103,101 0,6 14,24 30,39 17,15 30,34 30,42 0,7 9,20 20,28 11,8 20,22 20,32 0,10 5,18 10,18 6,0 10,8 10,18 0,10 9,24 20,32 11,8 20,22 20,32 0,10 5,18 10,18 6,0 10,9 10,20 0,11 5,20 10,20 6,0 10,8 10,18 0,10 9,24 20,32 11,8 20,22 20,32 0,10 5,18 10,18 6,0 10,9 10,20 0,11 5,20 10,20 6,0 10,14 10,30 0,17 5,30 10,30 6,0 10,9 10,20 0,11 5,20 10,20 6,0 10,9 10,20 0,11 5,20 10,20 6,0 10,9 10,20 0,11 5,20 10,20 6,0 10,9 10,20 0,11 5,20 10,20 6,0 10,8 10,18 0,10 9,24 20,32 11,8 20,21 20,30 0,9 9,22 20,30 11,8 20,20 20,28 0,18 66,82 85,82 8,0 15,5 15,10 0,6 9,10 20,10 11,0 20,5 20,10 0,6 9,10 20,10 11,0 20,5 20,10 0,6 37,10 90,10 53,0 90,-4 90,-10 0,-5 18,-10 40,-10 22,0 40,-4 40,-10 0,-5 9,-10 20,-10 11,0 20,-4 20,-10 0,-5 9,-10 20,-10 11,0 20,-4 20,-10 0,-5 8,-10 18,-10 10,0 24,-9 32,-20 8,-11 22,-20 32,-20 10,0 18,-4 18,-10 0,-5 7,-10 16,-10 9,0 29,-13 44,-30 15,-16 33,-30 39,-30 15,0 161,-146 161,-160 0,-6 22,-33 50,-60 27,-27 50,-54 50,-60 0,-6 18,-29 40,-50 22,-21 40,-44 40,-50 0,-6 18,-29 40,-50 22,-21 40,-45 40,-52 0,-7 9,-20 20,-28 11,-8 20,-21 20,-30 0,-9 9,-22 20,-30 11,-8 20,-21 20,-28 0,-8 14,-27 30,-42 16,-15 30,-33 30,-40 0,-7 14,-25 30,-40 16,-15 30,-35 30,-44 0,-9 5,-16 10,-16 6,0 10,-8 10,-18 0,-10 9,-24 20,-32 11,-8 20,-21 20,-28 0,-8 14,-27 30,-42 16,-15 30,-33 30,-39 0,-16 167,-181 183,-181 7,0 19,-9 27,-20 8,-11 21,-20 30,-20 9,0 22,-9 30,-20 8,-12 26,-20 42,-20 15,0 28,-4 28,-10 0,-5 18,-10 40,-10 22,0 40,-4 40,-10 0,-5 18,-10 40,-10 22,0 40,5 40,10 0,6 27,10 60,10 33,0 60,4 60,10 0,6 18,10 40,10 22,0 40,5 40,10 0,6 18,10 40,10 22,0 40,5 40,10 0,6 18,10 40,10 22,0 40,5 40,10 0,6 9,10 20,10 11,0 20,5 20,10 0,6 9,10 20,10 11,0 20,5 20,10 0,6 9,10 20,10 11,0 20,5 20,10 0,6 8,10 18,10 10,0 24,9 32,20 8,11 22,20 32,20 10,0 18,5 18,10 0,6 8,10 18,10 10,0 24,9 32,20 8,11 22,20 32,20 10,0 18,5 18,10 0,6 8,10 18,10 10,0 24,9 32,20 8,11 22,20 32,20 10,0 18,5 18,10 0,6 8,10 18,10 10,0 24,9 32,20 8,11 22,20 32,20 10,0 18,5 18,10 0,6 9,10 20,10 11,0 20,5 20,10 0,6 9,10 20,10 11,0 20,5 20,10 0,6 18,10 40,10 22,0 40,-4 40,-10 0,-5 9,-10 20,-10 11,0 20,5 20,10 0,6 9,10 20,10 11,0 20,5 20,10 0,6 8,10 18,10 10,0 24,9 32,20 8,11 22,20 32,20 10,0 18,5 18,10 0,6 8,10 18,10 10,0 24,9 32,20 8,11 22,20 32,20 10,0 18,5 18,10 0,6 5,10 10,10 6,0 10,-9 10,-20 0,-11 5,-20 10,-20 15,0 12,-49 -4,-66 -8,-8 -22,-14 -30,-14 -9,0 -16,-4 -16,-10 0,-5 -8,-10 -18,-10 -10,0 -24,-9 -32,-20 -8,-11 -22,-20 -32,-20 -10,0 -18,-4 -18,-10 0,-5 -8,-10 -18,-10 -10,0 -24,-9 -32,-20 -8,-11 -20,-20 -28,-20 -18,0 -42,-25 -42,-44 0,-9 -4,-16 -10,-16 -5,0 -10,-9 -10,-20 0,-13 -7,-20 -18,-20 -10,0 -24,-9 -32,-20 -8,-11 -21,-20 -28,-20 -8,0 -27,-13 -42,-30 -15,-16 -34,-30 -42,-30 -7,0 -20,-9 -28,-20 -8,-11 -22,-20 -32,-20 -10,0 -18,-4 -18,-10 0,-5 -8,-10 -18,-10 -10,0 -24,-9 -32,-20 -8,-11 -22,-20 -32,-20 -10,0 -18,-4 -18,-10 0,-5 -9,-10 -20,-10 -11,0 -20,-4 -20,-10 0,-5 -13,-10 -30,-10 -16,0 -30,-4 -30,-10 0,-5 -9,-10 -20,-10 -11,0 -20,-4 -20,-10 0,-5 -13,-10 -30,-10 -16,0 -30,-4 -30,-10 0,-5 -9,-10 -20,-10 -11,0 -20,-4 -20,-10 0,-5 -9,-10 -20,-10 -11,0 -20,-4 -20,-10 0,-5 -9,-10 -20,-10 -11,0 -20,-4 -20,-10 0,-5 -9,-10 -20,-10 -11,0 -20,-4 -20,-10 0,-5 -13,-10 -30,-10 -16,0 -30,-4 -30,-10 0,-5 -18,-10 -40,-10 -22,0 -40,-4 -40,-10 0,-5 -22,-10 -50,-10 -27,0 -50,-4 -50,-10 0,-5 -22,-10 -50,-10 -27,0 -50,-4 -50,-10 0,-6 -40,-10 -100,-10 -60,0 -100,4 -100,10 0,6 -13,10 -30,10 -16,0 -30,5 -30,10 0,6 -13,10 -30,10 -16,0 -30,5 -30,10 0,6 -8,10 -18,10 -10,0 -24,9 -32,20 -8,11 -20,20 -27,20 -16,0 -183,165 -183,181 0,6 -14,24 -30,39 -16,15 -30,33 -30,40 0,6 -18,29 -40,50 -22,21 -40,44 -40,50 0,7 -14,25 -30,40 -16,15 -30,33 -30,40 0,7 -14,25 -30,40 -16,15 -30,34 -30,42 0,7 -9,20 -20,28 -11,8 -20,21 -20,30 0,9 -9,22 -20,30 -11,8 -20,21 -20,30 0,9 -9,22 -20,30 -11,8 -20,21 -20,28 0,8 -13,27 -30,42 -16,15 -30,33 -30,40 0,7 -14,25 -30,40 -16,15 -30,33 -30,40 0,6 -18,29 -40,50 -22,21 -40,44 -40,50 0,7 -14,25 -30,40 -16,15 -30,33 -30,39 0,17 -228,241 -245,241 -8,0 -15,5 -15,10 0,6 -8,10 -18,10 -10,0 -24,9 -32,20 -8,11 -22,20 -32,20 -10,0 -18,5 -18,10 0,6 -32,10 -75,10 h -75 l -65,-65 c -36,-35 -65,-71 -65,-80 0,-8 -4,-15 -10,-15 -5,0 -10,-9 -10,-20 0,-11 -4,-20 -10,-20 -5,0 -10,-9 -10,-20 0,-11 -4,-20 -10,-20 -5,0 -10,-9 -10,-20 0,-11 -4,-20 -10,-20 -5,0 -10,-9 -10,-20 0,-11 -4,-20 -10,-20 -5,0 -10,-9 -10,-20 0,-11 -4,-20 -10,-20 -5,0 -10,-13 -10,-28 0,-16 -8,-34 -20,-42 -11,-8 -20,-22 -20,-32 0,-10 -4,-18 -10,-18 -5,0 -10,-9 -10,-20 0,-11 -4,-20 -10,-20 -5,0 -10,-8 -10,-18 0,-10 -9,-24 -20,-32 -11,-8 -20,-21 -20,-30 0,-9 -9,-22 -20,-30 -11,-8 -20,-21 -20,-30 0,-9 -9,-22 -20,-30 -11,-8 -20,-21 -20,-28 0,-8 -13,-27 -30,-42 -16,-15 -30,-33 -30,-39 0,-16 -167,-181 -183,-181 -7,0 -19,-9 -27,-20 -8,-11 -22,-20 -32,-20 -10,0 -18,-4 -18,-10 0,-5 -9,-10 -20,-10 -11,0 -20,-4 -20,-10 0,-5 -13,-10 -30,-10 -16,0 -30,-4 -30,-10 0,-5 -13,-10 -30,-10 -16,0 -30,5 -30,10 0,6 -18,10 -40,10 -22,0 -40,5 -40,10 0,6 -7,10 -15,10 -20,0 -65,45 -65,65 0,8 -4,15 -10,15 -5,0 -10,9 -10,20 0,11 -4,20 -10,20 -6,0 -10,27 -10,60 0,33 4,60 10,60 6,0 10,18 10,40 0,22 5,40 10,40 6,0 10,14 10,30 0,17 5,30 10,30 6,0 10,14 10,30 0,17 5,30 10,30 6,0 10,14 10,30 0,17 5,30 10,30 6,0 10,9 10,20 0,11 5,20 10,20 6,0 10,9 10,20 0,11 5,20 10,20 6,0 10,9 10,20 0,11 5,20 10,20 6,0 10,14 10,30 0,17 5,30 10,30 6,0 10,9 10,20 0,11 5,20 10,20 6,0 10,9 10,20 0,11 5,20 10,20 6,0 10,9 10,20 0,11 5,20 10,20 6,0 10,9 10,20 0,11 5,20 10,20 6,0 10,14 10,30 0,17 5,30 10,30 6,0 10,9 10,20 0,11 5,20 10,20 6,0 10,14 10,30 0,17 5,30 10,30 6,0 10,14 10,30 0,17 5,30 10,30 6,0 10,38 10,95 0,88 -2,98 -25,120 -24,25 -55,33 -55,15 0,-5 -9,-10 -20,-10 -11,0 -20,-4 -20,-10 0,-5 -7,-10 -15,-10 -17,0 -185,-164 -185,-181 0,-6 -13,-24 -30,-39 -16,-15 -30,-34 -30,-42 0,-7 -9,-20 -20,-28 -11,-8 -20,-21 -20,-30 0,-9 -9,-22 -20,-30 -11,-8 -20,-21 -20,-30 0,-9 -9,-22 -20,-30 -11,-8 -20,-22 -20,-32 0,-10 -4,-18 -10,-18 -5,0 -10,-9 -10,-20 0,-11 -4,-20 -10,-20 -5,0 -10,-8 -10,-18 0,-10 -9,-24 -20,-32 -11,-8 -20,-22 -20,-32 0,-10 -4,-18 -10,-18 -5,0 -10,-9 -10,-20 0,-11 -4,-20 -10,-20 -5,0 -10,-9 -10,-20 0,-11 -4,-20 -10,-20 -5,0 -10,-9 -10,-20 0,-11 -4,-20 -10,-20 -5,0 -10,-9 -10,-20 0,-11 -4,-20 -10,-20 -5,0 -10,-9 -10,-20 0,-11 -4,-20 -10,-20 -5,0 -10,-9 -10,-20 0,-11 -4,-20 -10,-20 -5,0 -10,-9 -10,-20 0,-11 -4,-20 -10,-20 -5,0 -10,-9 -10,-20 0,-11 -4,-20 -10,-20 -5,0 -10,-9 -10,-20 0,-11 -4,-20 -10,-20 -5,0 -10,-13 -10,-30 0,-16 -4,-30 -10,-30 -5,0 -10,-7 -10,-15 0,-20 -45,-65 -65,-65 -8,0 -15,-4 -15,-10 0,-5 -13,-10 -30,-10 -16,0 -30,5 -30,10 0,6 -9,10 -20,10 -11,0 -20,5 -20,10 0,6 -7,10 -15,10 -29,0 -65,47 -65,84 0,19 6,36 13,39 6,2 9,8 5,12 -5,5 -16,-2 -27,-13 -10,-12 -26,-22 -35,-22 -9,0 -16,-4 -16,-10 0,-5 -9,-10 -20,-10 -11,0 -20,-4 -20,-10 0,-5 -9,-10 -20,-10 -11,0 -20,-4 -20,-10 0,-6 -33,-10 -80,-10 -47,0 -80,4 -80,10 0,6 -7,10 -15,10 -9,0 -36,20 -60,45 -36,36 -45,51 -45,80 0,19 -4,35 -10,35 -5,0 -10,14 -10,30 0,17 5,30 10,30 6,0 10,9 10,20 0,29 -28,25 -60,-10 -15,-16 -35,-30 -44,-30 -9,0 -16,-4 -16,-10 0,-5 -9,-10 -20,-10 -11,0 -20,-4 -20,-10 0,-5 -9,-10 -20,-10 -11,0 -20,-4 -20,-10 0,-5 -9,-10 -20,-10 -11,0 -20,-4 -20,-10 0,-6 -37,-10 -90,-10 -53,0 -90,4 -90,10 0,6 -7,10 -15,10 -20,0 -105,85 -105,105 0,8 -4,15 -10,15 -5,0 -10,12 -10,26 0,29 -31,67 -38,46 -2,-6 -11,-12 -21,-12 -9,0 -23,-9 -31,-20 -8,-11 -22,-20 -32,-20 -10,0 -18,-4 -18,-10 0,-5 -13,-10 -30,-10 -16,0 -30,-4 -30,-10 0,-5 -22,-10 -50,-10 -27,0 -50,5 -50,10 0,6 -13,10 -30,10 -16,0 -30,5 -30,10 0,6 -7,10 -15,10 -26,0 -125,107 -125,135 0,14 -4,25 -10,25 -5,0 -10,18 -10,40 0,22 -4,40 -10,40 -5,0 -10,23 -10,50 0,28 5,50 10,50 6,0 10,27 10,60 0,33 4,60 10,60 6,0 10,14 10,30 0,17 5,30 10,30 6,0 10,14 10,30 0,17 5,30 10,30 6,0 10,14 10,30 0,17 5,30 10,30 6,0 10,14 10,30 0,17 5,30 10,30 6,0 10,14 10,30 0,17 5,30 10,30 6,0 10,9 10,20 0,11 5,20 10,20 6,0 10,14 10,30 0,17 5,30 10,30 6,0 10,14 10,30 0,17 5,30 10,30 6,0 10,14 10,30 0,17 5,30 10,30 6,0 10,7 10,15 0,18 -44,65 -60,65 -16,0 -80,67 -80,85 0,8 -3,15 -6,15 -11,0 -34,-29 -34,-44 0,-9 -4,-16 -10,-16 -5,0 -10,-9 -10,-20 0,-11 -4,-20 -10,-20 -5,0 -10,-9 -10,-20 0,-11 -4,-20 -10,-20 -5,0 -10,-13 -10,-30 0,-16 -4,-30 -10,-30 -5,0 -10,-9 -10,-20 0,-11 -4,-20 -10,-20 -5,0 -10,-13 -10,-30 0,-16 -4,-30 -10,-30 -5,0 -10,-9 -10,-20 0,-11 -4,-20 -10,-20 -5,0 -10,-13 -10,-30 0,-16 -4,-30 -10,-30 -5,0 -10,-9 -10,-20 0,-11 -4,-20 -10,-20 -5,0 -10,-13 -10,-30 0,-16 -4,-30 -10,-30 -5,0 -10,-13 -10,-30 0,-16 -4,-30 -10,-30 -5,0 -10,-13 -10,-30 0,-16 -4,-30 -10,-30 -5,0 -10,-9 -10,-20 0,-11 -4,-20 -10,-20 -5,0 -10,-13 -10,-30 0,-16 -4,-30 -10,-30 -5,0 -10,-13 -10,-30 0,-16 -4,-30 -10,-30 -5,0 -10,-13 -10,-30 0,-16 -4,-30 -10,-30 -5,0 -10,-9 -10,-20 0,-11 -4,-20 -10,-20 -5,0 -10,-13 -10,-30 0,-16 -4,-30 -10,-30 -5,0 -10,-7 -10,-15 0,-26 -66,-85 -95,-85 -14,0 -25,5 -25,10 0,6 -7,10 -15,10 -9,0 -27,11 -40,25 -21,20 -25,34 -25,80 0,30 -4,55 -10,55 -5,0 -10,-4 -10,-10 0,-5 -8,-10 -18,-10 -10,0 -24,-9 -32,-20 -8,-11 -22,-20 -32,-20 -10,0 -18,-4 -18,-10 0,-5 -13,-10 -30,-10 -16,0 -30,-4 -30,-10 0,-6 -27,-10 -60,-10 -33,0 -60,4 -60,10 0,6 -11,10 -25,10 -35,0 -115,80 -115,115 0,14 -4,25 -10,25 -5,0 -10,23 -10,50 0,28 5,50 10,50 6,0 10,23 10,50 0,28 5,50 10,50 6,0 10,14 10,30 0,17 5,30 10,30 6,0 10,14 10,30 0,17 5,30 10,30 6,0 10,9 10,20 0,11 5,20 10,20 6,0 10,14 10,30 0,17 5,30 10,30 6,0 10,9 10,20 0,11 5,20 10,20 6,0 10,9 10,20 0,11 5,20 10,20 6,0 10,9 10,20 0,11 5,20 10,20 6,0 10,9 10,20 0,11 5,20 10,20 6,0 10,14 10,30 0,17 5,30 10,30 6,0 10,9 10,20 0,11 5,20 10,20 6,0 10,9 10,20 0,11 5,20 10,20 6,0 10,9 10,20 0,11 5,20 10,20 6,0 10,14 10,30 0,17 5,30 10,30 6,0 10,14 10,30 0,17 5,30 10,30 6,0 10,14 10,30 0,17 5,30 10,30 6,0 10,23 10,50 0,28 5,50 10,50 6,0 10,9 10,20 0,11 -4,20 -10,20 -5,0 -10,12 -10,26 0,14 -6,32 -14,40 -17,16 -106,20 -106,4 0,-5 -7,-10 -15,-10 -17,0 -145,-124 -145,-141 0,-6 -18,-28 -40,-49 -22,-21 -40,-45 -40,-52 0,-7 -9,-20 -20,-28 -11,-8 -20,-21 -20,-30 0,-9 -9,-22 -20,-30 -11,-8 -20,-21 -20,-30 0,-9 -9,-22 -20,-30 -11,-8 -20,-22 -20,-32 0,-10 -4,-18 -10,-18 -5,0 -10,-8 -10,-18 0,-10 -9,-24 -20,-32 -11,-8 -20,-22 -20,-32 0,-10 -4,-18 -10,-18 -5,0 -10,-9 -10,-20 0,-11 -4,-20 -10,-20 -5,0 -10,-8 -10,-18 0,-10 -9,-24 -20,-32 -11,-8 -20,-22 -20,-32 0,-10 -4,-18 -10,-18 -5,0 -10,-9 -10,-20 0,-11 -4,-20 -10,-20 -5,0 -10,-9 -10,-20 0,-11 -4,-20 -10,-20 -5,0 -10,-9 -10,-20 0,-11 -4,-20 -10,-20 -5,0 -10,-9 -10,-20 0,-11 -4,-20 -10,-20 -5,0 -10,-9 -10,-20 0,-11 -4,-20 -10,-20 -5,0 -10,-9 -10,-20 0,-11 -4,-20 -10,-20 -5,0 -10,-13 -10,-30 0,-16 -4,-30 -10,-30 -5,0 -10,-9 -10,-20 0,-11 -4,-20 -10,-20 -5,0 -10,-9 -10,-20 0,-11 -4,-20 -10,-20 -5,0 -10,-9 -10,-20 0,-13 -7,-20 -20,-20 -11,0 -20,-4 -20,-10 0,-5 -22,-10 -50,-10 -27,0 -50,5 -50,10 0,6 -7,10 -15,10 -9,0 -31,16 -50,35 -27,26 -35,43 -35,70 0,19 5,35 10,35 6,0 10,14 10,30 0,17 5,30 10,30 6,0 10,9 10,20 0,11 5,20 10,20 6,0 10,14 10,30 0,17 5,30 10,30 6,0 10,14 10,30 0,17 5,30 10,30 6,0 10,14 10,30 0,17 5,30 10,30 6,0 10,14 10,30 0,17 5,30 10,30 6,0 10,14 10,30 0,17 5,30 10,30 6,0 10,9 10,20 0,13 -7,20 -20,20 -11,0 -20,-4 -20,-10 0,-5 -13,-10 -30,-10 -16,0 -30,-4 -30,-10 0,-5 -13,-10 -30,-10 -16,0 -30,-4 -30,-10 0,-5 -13,-10 -30,-10 -16,0 -30,-4 -30,-10 0,-5 -22,-10 -50,-10 -27,0 -50,-4 -50,-10 0,-5 -22,-10 -50,-10 -27,0 -50,-4 -50,-10 0,-5 -22,-10 -50,-10 -27,0 -50,-4 -50,-10 0,-5 5,-10 10,-10 6,0 10,-9 10,-20 0,-11 5,-20 10,-20 6,0 10,-13 10,-30 0,-16 5,-30 10,-30 6,0 10,-13 10,-30 0,-16 5,-30 10,-30 6,0 10,-13 10,-30 0,-16 5,-30 10,-30 6,0 10,-27 10,-60 0,-33 4,-60 10,-60 6,0 10,-47 10,-120 0,-73 -4,-120 -10,-120 -6,0 -10,-27 -10,-60 0,-33 -4,-60 -10,-60 -5,0 -10,-18 -10,-40 0,-22 -4,-40 -10,-40 -5,0 -10,-9 -10,-20 0,-11 -4,-20 -10,-20 -5,0 -10,-13 -10,-30 0,-16 -4,-30 -10,-30 -5,0 -10,-7 -10,-16 0,-9 -13,-29 -30,-44 -16,-15 -30,-33 -30,-40 0,-16 -25,-40 -42,-40 -8,0 -20,-9 -28,-20 -8,-11 -22,-20 -32,-20 -10,0 -18,-4 -18,-10 0,-5 -13,-10 -30,-10 -16,0 -30,-4 -30,-10 0,-6 -30,-10 -70,-10 -40,0 -70,4 -70,10 0,6 -7,10 -15,10 -20,0 -85,65 -85,85 0,8 -4,15 -10,15 -5,0 -10,9 -10,20 0,11 -4,20 -10,20 -6,0 -10,30 -10,70 0,40 -4,70 -10,70 -6,0 -10,27 -10,60 0,33 4,60 10,60 6,0 10,40 10,100 0,60 4,100 10,100 6,0 10,27 10,60 0,33 4,60 10,60 6,0 10,27 10,60 0,33 4,60 10,60 6,0 10,18 10,40 0,22 5,40 10,40 6,0 10,23 10,50 0,28 5,50 10,50 6,0 10,18 10,40 0,22 5,40 10,40 6,0 10,14 10,30 0,17 5,30 10,30 6,0 10,14 10,30 0,17 -4,30 -10,30 -5,0 -10,7 -10,16 0,8 -18,33 -40,54 -22,21 -40,44 -40,50 0,7 -13,25 -30,40 -16,15 -30,33 -30,39 0,17 -147,161 -165,161 -8,0 -15,5 -15,10 0,6 -9,10 -20,10 -11,0 -20,5 -20,10 0,6 -9,10 -20,10 -11,0 -20,-4 -20,-10 0,-5 -18,-10 -40,-10 -22,0 -40,-4 -40,-10 0,-5 -7,-10 -16,-10 -9,0 -29,-13 -44,-30 -15,-16 -33,-30 -39,-30 -15,0 -61,-46 -61,-60 0,-7 -18,-29 -40,-50 -22,-21 -40,-46 -40,-54 0,-9 -4,-16 -10,-16 -5,0 -10,-8 -10,-18 0,-10 -9,-24 -20,-32 -11,-8 -20,-22 -20,-32 0,-10 -4,-18 -10,-18 -5,0 -10,-9 -10,-20 0,-11 -4,-20 -10,-20 -5,0 -10,-9 -10,-20 0,-11 -4,-20 -10,-20 -5,0 -10,-9 -10,-20 0,-11 -4,-20 -10,-20 -5,0 -10,-9 -10,-20 0,-11 -4,-20 -10,-20 -5,0 -10,-13 -10,-30 0,-16 -4,-30 -10,-30 -5,0 -10,-9 -10,-20 0,-11 -4,-20 -10,-20 -5,0 -10,-12 -10,-26 0,-31 -21,-54 -50,-54 -25,0 -50,-22 -50,-44 0,-9 -4,-16 -10,-16 -5,0 -10,-9 -10,-20 0,-11 -4,-20 -10,-20 -5,0 -10,-13 -10,-30 0,-16 -4,-30 -10,-30 -5,0 -10,-9 -10,-20 0,-11 -4,-20 -10,-20 -5,0 -10,-9 -10,-20 0,-11 -4,-20 -10,-20 -5,0 -10,-13 -10,-30 0,-16 -4,-30 -10,-30 -5,0 -10,-9 -10,-20 0,-16 -7,-20 -30,-20 -16,0 -30,5 -30,10 0,6 -9,10 -20,10 -13,0 -20,7 -20,20 0,11 5,20 10,20 6,0 10,9 10,20 0,11 5,20 10,20 6,0 10,14 10,30 0,17 5,30 10,30 6,0 10,9 10,20 0,11 5,20 10,20 6,0 10,9 10,20 0,11 5,20 10,20 6,0 10,14 10,30 0,17 5,30 10,30 6,0 10,9 10,20 0,11 5,20 10,20 6,0 10,9 10,20 0,11 -4,20 -10,20 -5,0 -10,23 -10,50 0,28 5,50 10,50 6,0 10,9 10,20 0,11 5,20 10,20 6,0 10,14 10,30 0,17 5,30 10,30 6,0 10,9 10,20 0,11 5,20 10,20 6,0 10,9 10,20 0,11 5,20 10,20 6,0 10,9 10,20 0,11 5,20 10,20 6,0 10,9 10,20 0,11 5,20 10,20 6,0 10,8 10,18 0,10 9,24 20,32 11,8 20,22 20,32 0,10 5,18 10,18 6,0 10,7 10,16 0,9 14,29 30,44 17,15 30,33 30,39 0,16 187,201 203,201 7,0 19,9 27,20 8,11 22,20 32,20 10,0 18,5 18,10 0,6 9,10 20,10 11,0 20,5 20,10 0,6 14,10 30,10 17,0 30,5 30,10 0,6 22,10 49,10 30,0 52,5 55,13 5,10 7,10 12,0 3,-8 25,-13 55,-13 27,0 49,-4 49,-10 0,-5 9,-10 20,-10 11,0 20,-4 20,-10 0,-5 9,-10 20,-10 11,0 20,-4 20,-10 0,-5 7,-10 15,-10 18,0 125,-104 125,-121 0,-6 18,-28 40,-49 22,-21 40,-43 40,-50 0,-11 44,-60 55,-60 3,0 5,14 5,30 0,17 5,30 10,30 6,0 10,14 10,30 0,17 5,30 10,30 6,0 10,14 10,30 0,17 5,30 10,30 6,0 10,9 10,20 0,11 5,20 10,20 6,0 10,14 10,30 0,17 5,30 10,30 6,0 10,14 10,30 0,17 5,30 10,30 6,0 10,9 10,20 0,11 5,20 10,20 6,0 10,14 10,30 0,17 5,30 10,30 6,0 10,9 10,20 0,11 5,20 10,20 6,0 10,9 10,20 0,11 5,20 10,20 6,0 10,14 10,30 0,17 5,30 10,30 6,0 10,9 10,20 0,11 5,20 10,20 6,0 10,9 10,20 0,11 5,20 10,20 6,0 10,9 10,20 0,11 5,20 10,20 6,0 10,8 10,18 0,10 9,24 20,32 11,8 20,22 20,32 0,10 5,18 10,18 6,0 10,9 10,20 0,11 5,20 10,20 6,0 10,8 10,18 0,10 9,24 20,32 11,8 20,21 20,28 0,8 14,27 30,42 17,15 30,33 30,39 0,16 127,141 143,141 7,0 19,9 27,20 8,11 22,20 32,20 10,0 18,5 18,10 0,6 14,10 30,10 17,0 30,5 30,10 0,6 30,10 70,10 40,0 70,-4 70,-10 z"
       id="path12" />
    <path
       d="m 3620,7250 c 0,-5 -7,-10 -15,-10 -18,0 -65,-44 -65,-61 0,-6 -13,-24 -30,-39 -16,-15 -30,-34 -30,-42 0,-7 -9,-20 -20,-28 -11,-8 -20,-21 -20,-30 0,-9 -9,-22 -20,-30 -11,-8 -20,-21 -20,-30 0,-9 -9,-22 -20,-30 -11,-8 -20,-22 -20,-32 0,-10 -4,-18 -10,-18 -5,0 -10,-9 -10,-20 0,-11 -4,-20 -10,-20 -5,0 -10,-9 -10,-20 0,-11 -4,-20 -10,-20 -5,0 -10,-9 -10,-20 0,-11 -4,-20 -10,-20 -5,0 -10,-9 -10,-20 0,-11 -4,-20 -10,-20 -5,0 -10,-9 -10,-20 0,-11 -4,-20 -10,-20 -5,0 -10,-9 -10,-20 0,-11 -4,-20 -10,-20 -5,0 -10,-9 -10,-20 0,-11 -4,-20 -10,-20 -5,0 -10,-9 -10,-20 0,-11 -4,-20 -10,-20 -5,0 -10,-13 -10,-30 0,-16 -4,-30 -10,-30 -5,0 -10,-9 -10,-20 0,-11 -4,-20 -10,-20 -5,0 -10,-13 -10,-30 0,-16 -4,-30 -10,-30 -5,0 -10,-9 -10,-20 0,-11 -4,-20 -10,-20 -5,0 -10,-9 -10,-20 0,-11 2,-20 5,-20 10,0 155,150 155,160 0,6 23,33 50,60 28,27 50,54 50,60 0,6 18,29 40,50 22,21 40,44 40,50 0,7 14,25 30,40 17,15 30,33 30,40 0,7 14,25 30,40 17,15 30,34 30,42 0,7 9,20 20,28 11,8 20,22 20,32 0,10 5,18 10,18 6,0 10,9 10,20 0,11 5,20 10,20 6,0 10,9 10,20 0,11 5,20 10,20 6,0 10,9 10,20 0,11 5,20 10,20 6,0 10,14 10,30 0,17 5,30 10,30 6,0 10,27 10,60 v 60 h -40 c -22,0 -40,-4 -40,-10 z"
       id="path14" />
    <path
       d="m 2913,5785 c -7,-8 -13,-30 -13,-50 0,-19 -4,-35 -10,-35 -5,0 -10,-18 -10,-40 0,-22 -4,-40 -10,-40 -5,0 -10,-18 -10,-40 0,-22 -4,-40 -10,-40 -5,0 -10,-22 -10,-50 0,-27 -4,-50 -10,-50 -6,0 -10,-27 -10,-60 0,-33 -4,-60 -10,-60 -6,0 -10,-55 -10,-146 0,-184 7,-197 75,-130 25,25 45,52 45,61 0,8 5,15 10,15 6,0 10,9 10,20 0,11 5,20 10,20 6,0 10,9 10,20 0,11 5,20 10,20 6,0 10,14 10,30 0,17 5,30 10,30 6,0 10,23 10,50 0,28 5,50 10,50 6,0 10,33 10,80 0,47 -4,80 -10,80 -6,0 -10,27 -10,60 0,33 -4,60 -10,60 -5,0 -10,14 -10,30 0,17 -4,30 -10,30 -5,0 -10,14 -10,30 0,17 -4,30 -10,30 -5,0 -10,9 -10,20 0,23 -10,25 -27,5 z"
       id="path16" />
  </g>
</svg>
